<?xml version="1.0" encoding="UTF-8" standalone="no"?>
<svg width="246.239mm" height="129.117mm"
 viewBox="0 0 698 366"
 xmlns="http://www.w3.org/2000/svg" xmlns:xlink="http://www.w3.org/1999/xlink"  version="1.2" baseProfile="tiny">
<title>Qt SVG Document</title>
<desc>MATLAB, The MathWorks, Inc. Version 25.1.0.2973910 R2025a Update 1</desc>
<defs>
</defs>
<g fill="none" stroke="black" stroke-width="1" fill-rule="evenodd" stroke-linecap="square" stroke-linejoin="bevel" >

<g fill="#ffffff" fill-opacity="1" stroke="none" transform="matrix(0.757699,0,0,0.757345,-78.6215,-16.0925)"
font-family="Sans Serif" font-size="9" font-weight="400" font-style="normal" 
>
<path vector-effect="none" fill-rule="evenodd" d="M102,20 L1024,20 L1024,504 L102,504 L102,20"/>
</g>

<g fill="#ffffff" fill-opacity="1" stroke="none" transform="matrix(7.57699e-05,0,0,7.57345e-05,-78.6215,-16.0925)"
font-family="Sans Serif" font-size="9" font-weight="400" font-style="normal" 
>
<path vector-effect="none" fill-rule="evenodd" d="M1.47e+06,390000 L1.47e+06,2.18e+06 L1.022e+07,2.18e+06 L1.022e+07,390000 L1.47e+06,390000"/>
</g>

<g fill="#212121" fill-opacity="1" stroke="#212121" stroke-opacity="1" stroke-width="0.659722" stroke-linecap="square" stroke-linejoin="round" transform="matrix(0.757699,0,0,0.757345,-78.6215,-16.0925)"
font-family="Sans Serif" font-size="9" font-weight="400" font-style="normal" 
>
<polyline fill="none" vector-effect="none" points="147,218 1022,218 " />
<polyline fill="none" vector-effect="none" points="147,39 1022,39 " />
<polyline fill="none" vector-effect="none" points="147,218 147,209.25 " />
<polyline fill="none" vector-effect="none" points="147,47.75 147,39 " />
<polyline fill="none" vector-effect="none" points="286.331,218 286.331,209.25 " />
<polyline fill="none" vector-effect="none" points="286.331,47.75 286.331,39 " />
<polyline fill="none" vector-effect="none" points="425.662,218 425.662,209.25 " />
<polyline fill="none" vector-effect="none" points="425.662,47.75 425.662,39 " />
<polyline fill="none" vector-effect="none" points="564.994,218 564.994,209.25 " />
<polyline fill="none" vector-effect="none" points="564.994,47.75 564.994,39 " />
<polyline fill="none" vector-effect="none" points="704.325,218 704.325,209.25 " />
<polyline fill="none" vector-effect="none" points="704.325,47.75 704.325,39 " />
<polyline fill="none" vector-effect="none" points="843.656,218 843.656,209.25 " />
<polyline fill="none" vector-effect="none" points="843.656,47.75 843.656,39 " />
<polyline fill="none" vector-effect="none" points="982.987,218 982.987,209.25 " />
<polyline fill="none" vector-effect="none" points="982.987,47.75 982.987,39 " />
</g>

<g fill="#212121" fill-opacity="1" stroke="#212121" stroke-opacity="1" stroke-width="1" stroke-linecap="square" stroke-linejoin="bevel" transform="matrix(0.757699,0,0,0.757345,30.1084,160.737)"
font-family="Helvetica" font-size="12" font-weight="400" font-style="normal" 
>
<text fill="#212121" fill-opacity="1" stroke="none" xml:space="preserve" x="0" y="0" font-family="Helvetica" font-size="12" font-weight="400" font-style="normal" 
 >0</text>
</g>

<g fill="#212121" fill-opacity="1" stroke="#212121" stroke-opacity="1" stroke-width="1" stroke-linecap="square" stroke-linejoin="bevel" transform="matrix(0.757699,0,0,0.757345,133.406,160.737)"
font-family="Helvetica" font-size="12" font-weight="400" font-style="normal" 
>
<text fill="#212121" fill-opacity="1" stroke="none" xml:space="preserve" x="0" y="0" font-family="Helvetica" font-size="12" font-weight="400" font-style="normal" 
 >50</text>
</g>

<g fill="#212121" fill-opacity="1" stroke="#212121" stroke-opacity="1" stroke-width="1" stroke-linecap="square" stroke-linejoin="bevel" transform="matrix(0.757699,0,0,0.757345,236.326,160.737)"
font-family="Helvetica" font-size="12" font-weight="400" font-style="normal" 
>
<text fill="#212121" fill-opacity="1" stroke="none" xml:space="preserve" x="0" y="0" font-family="Helvetica" font-size="12" font-weight="400" font-style="normal" 
 >100</text>
</g>

<g fill="#212121" fill-opacity="1" stroke="#212121" stroke-opacity="1" stroke-width="1" stroke-linecap="square" stroke-linejoin="bevel" transform="matrix(0.757699,0,0,0.757345,341.897,160.737)"
font-family="Helvetica" font-size="12" font-weight="400" font-style="normal" 
>
<text fill="#212121" fill-opacity="1" stroke="none" xml:space="preserve" x="0" y="0" font-family="Helvetica" font-size="12" font-weight="400" font-style="normal" 
 >150</text>
</g>

<g fill="#212121" fill-opacity="1" stroke="#212121" stroke-opacity="1" stroke-width="1" stroke-linecap="square" stroke-linejoin="bevel" transform="matrix(0.757699,0,0,0.757345,447.468,160.737)"
font-family="Helvetica" font-size="12" font-weight="400" font-style="normal" 
>
<text fill="#212121" fill-opacity="1" stroke="none" xml:space="preserve" x="0" y="0" font-family="Helvetica" font-size="12" font-weight="400" font-style="normal" 
 >200</text>
</g>

<g fill="#212121" fill-opacity="1" stroke="#212121" stroke-opacity="1" stroke-width="1" stroke-linecap="square" stroke-linejoin="bevel" transform="matrix(0.757699,0,0,0.757345,553.039,160.737)"
font-family="Helvetica" font-size="12" font-weight="400" font-style="normal" 
>
<text fill="#212121" fill-opacity="1" stroke="none" xml:space="preserve" x="0" y="0" font-family="Helvetica" font-size="12" font-weight="400" font-style="normal" 
 >250</text>
</g>

<g fill="#212121" fill-opacity="1" stroke="#212121" stroke-opacity="1" stroke-width="1" stroke-linecap="square" stroke-linejoin="bevel" transform="matrix(0.757699,0,0,0.757345,658.61,160.737)"
font-family="Helvetica" font-size="12" font-weight="400" font-style="normal" 
>
<text fill="#212121" fill-opacity="1" stroke="none" xml:space="preserve" x="0" y="0" font-family="Helvetica" font-size="12" font-weight="400" font-style="normal" 
 >300</text>
</g>

<g fill="#212121" fill-opacity="1" stroke="#212121" stroke-opacity="1" stroke-width="0.659722" stroke-linecap="square" stroke-linejoin="round" transform="matrix(0.757699,0,0,0.757345,-78.6215,-16.0925)"
font-family="Helvetica" font-size="12" font-weight="400" font-style="normal" 
>
<polyline fill="none" vector-effect="none" points="147,218 147,39 " />
<polyline fill="none" vector-effect="none" points="1022,218 1022,39 " />
<polyline fill="none" vector-effect="none" points="147,218 155.75,218 " />
<polyline fill="none" vector-effect="none" points="1013.25,218 1022,218 " />
<polyline fill="none" vector-effect="none" points="147,188.167 155.75,188.167 " />
<polyline fill="none" vector-effect="none" points="1013.25,188.167 1022,188.167 " />
<polyline fill="none" vector-effect="none" points="147,158.333 155.75,158.333 " />
<polyline fill="none" vector-effect="none" points="1013.25,158.333 1022,158.333 " />
<polyline fill="none" vector-effect="none" points="147,128.5 155.75,128.5 " />
<polyline fill="none" vector-effect="none" points="1013.25,128.5 1022,128.5 " />
<polyline fill="none" vector-effect="none" points="147,98.6667 155.75,98.6667 " />
<polyline fill="none" vector-effect="none" points="1013.25,98.6667 1022,98.6667 " />
<polyline fill="none" vector-effect="none" points="147,68.8333 155.75,68.8333 " />
<polyline fill="none" vector-effect="none" points="1013.25,68.8333 1022,68.8333 " />
<polyline fill="none" vector-effect="none" points="147,39 155.75,39 " />
<polyline fill="none" vector-effect="none" points="1013.25,39 1022,39 " />
</g>

<g fill="#212121" fill-opacity="1" stroke="#212121" stroke-opacity="1" stroke-width="1" stroke-linecap="square" stroke-linejoin="bevel" transform="matrix(0.757699,0,0,0.757345,13.4496,152.038)"
font-family="Helvetica" font-size="12" font-weight="400" font-style="normal" 
>
<text fill="#212121" fill-opacity="1" stroke="none" xml:space="preserve" x="0" y="0" font-family="Helvetica" font-size="12" font-weight="400" font-style="normal" 
 >-0.2</text>
</g>

<g fill="#212121" fill-opacity="1" stroke="#212121" stroke-opacity="1" stroke-width="1" stroke-linecap="square" stroke-linejoin="bevel" transform="matrix(0.757699,0,0,0.757345,24.0573,129.444)"
font-family="Helvetica" font-size="12" font-weight="400" font-style="normal" 
>
<text fill="#212121" fill-opacity="1" stroke="none" xml:space="preserve" x="0" y="0" font-family="Helvetica" font-size="12" font-weight="400" font-style="normal" 
 >0</text>
</g>

<g fill="#212121" fill-opacity="1" stroke="#212121" stroke-opacity="1" stroke-width="1" stroke-linecap="square" stroke-linejoin="bevel" transform="matrix(0.757699,0,0,0.757345,16.4803,106.85)"
font-family="Helvetica" font-size="12" font-weight="400" font-style="normal" 
>
<text fill="#212121" fill-opacity="1" stroke="none" xml:space="preserve" x="0" y="0" font-family="Helvetica" font-size="12" font-weight="400" font-style="normal" 
 >0.2</text>
</g>

<g fill="#212121" fill-opacity="1" stroke="#212121" stroke-opacity="1" stroke-width="1" stroke-linecap="square" stroke-linejoin="bevel" transform="matrix(0.757699,0,0,0.757345,16.4803,84.2557)"
font-family="Helvetica" font-size="12" font-weight="400" font-style="normal" 
>
<text fill="#212121" fill-opacity="1" stroke="none" xml:space="preserve" x="0" y="0" font-family="Helvetica" font-size="12" font-weight="400" font-style="normal" 
 >0.4</text>
</g>

<g fill="#212121" fill-opacity="1" stroke="#212121" stroke-opacity="1" stroke-width="1" stroke-linecap="square" stroke-linejoin="bevel" transform="matrix(0.757699,0,0,0.757345,16.4803,61.6616)"
font-family="Helvetica" font-size="12" font-weight="400" font-style="normal" 
>
<text fill="#212121" fill-opacity="1" stroke="none" xml:space="preserve" x="0" y="0" font-family="Helvetica" font-size="12" font-weight="400" font-style="normal" 
 >0.6</text>
</g>

<g fill="#212121" fill-opacity="1" stroke="#212121" stroke-opacity="1" stroke-width="1" stroke-linecap="square" stroke-linejoin="bevel" transform="matrix(0.757699,0,0,0.757345,16.4803,39.0675)"
font-family="Helvetica" font-size="12" font-weight="400" font-style="normal" 
>
<text fill="#212121" fill-opacity="1" stroke="none" xml:space="preserve" x="0" y="0" font-family="Helvetica" font-size="12" font-weight="400" font-style="normal" 
 >0.8</text>
</g>

<g fill="#212121" fill-opacity="1" stroke="#212121" stroke-opacity="1" stroke-width="1" stroke-linecap="square" stroke-linejoin="bevel" transform="matrix(0.757699,0,0,0.757345,24.0573,16.4734)"
font-family="Helvetica" font-size="12" font-weight="400" font-style="normal" 
>
<text fill="#212121" fill-opacity="1" stroke="none" xml:space="preserve" x="0" y="0" font-family="Helvetica" font-size="12" font-weight="400" font-style="normal" 
 >1</text>
</g>

<g fill="none" stroke="#1171be" stroke-opacity="1" stroke-width="0.659722" stroke-linecap="butt" stroke-linejoin="round" transform="matrix(0.757699,0,0,0.757345,-78.6215,-16.0925)"
font-family="Helvetica" font-size="12" font-weight="400" font-style="normal" 
>
<polyline fill="none" vector-effect="none" points="147,187.611 149.787,187.194 152.573,188.936 155.36,187.797 158.146,187.932 160.933,187.753 163.72,187.937 166.506,188.126 169.293,188.334 172.08,188.433 174.866,188.41 177.653,188.285 180.439,188.125 183.226,188.003 186.013,187.966 188.799,188.019 191.586,188.129 194.373,188.24 197.159,188.305 199.946,188.302 202.732,188.241 205.519,188.159 208.306,188.095 211.092,188.074 213.879,188.098 216.666,188.144 219.452,188.186 222.239,188.203 225.025,188.195 227.812,188.177 230.599,188.167 233.385,188.175 236.172,188.195 238.959,188.207 241.745,188.193 244.532,188.148 247.318,188.092 250.105,188.057 252.892,188.073 255.678,188.144 258.465,188.247 261.252,188.332 264.038,188.349 266.825,188.277 269.611,188.138 272.398,187.992 275.185,187.911 277.971,187.945 280.758,188.09 283.545,188.287 286.331,188.443 289.118,188.481 291.904,188.373 294.691,188.162 297.478,187.941 300.264,187.816 303.051,187.849 305.838,188.029 308.624,188.276 311.411,188.474 314.197,188.533 316.984,188.425 319.771,188.202 322.557,187.97 325.344,187.836 328.131,187.856 330.917,188.012 333.704,188.224 336.49,188.391 339.277,188.441 342.064,188.365 344.85,188.215 347.637,188.072 350.424,188.001 353.21,188.019 355.997,188.096 358.783,188.173 361.57,188.206 364.357,188.189 367.143,188.155 369.93,188.15 372.717,188.199 375.503,188.281 378.29,188.338 381.076,188.309 383.863,188.177 386.65,187.985 389.436,187.83 392.223,187.814 395.01,187.982 397.796,188.284 400.583,188.588 403.369,188.734 406.156,188.62 408.943,188.265 411.729,187.815 414.516,187.48 417.303,187.441 420.089,187.746 422.876,188.278 425.662,188.801 428.449,189.061 431.236,188.917 434.022,188.415 436.809,187.773 439.596,187.29 442.382,187.198 445.169,187.549 447.955,188.188 450.742,188.82 453.529,189.152 456.315,189.035 459.102,188.529 461.889,187.876 464.675,187.381 467.462,187.262 470.248,187.552 473.035,188.089 475.822,188.61 478.608,188.879 481.395,188.802 484.182,188.463 486.968,188.059 489.755,187.79 492.541,187.755 495.328,187.911 498.115,188.118 500.901,188.234 503.688,188.211 506.475,188.113 509.261,188.073 512.048,188.189 514.834,188.443 517.621,188.684 520.408,188.714 523.194,188.411 525.981,187.838 528.768,187.25 531.554,186.986 534.341,187.283 537.127,188.118 539.914,189.165 542.701,189.915 545.487,189.922 548.274,189.05 551.06,187.599 553.847,186.209 556.634,185.585 559.42,186.138 562.207,187.744 564.994,189.74 567.78,191.198 570.567,191.352 573.354,190 576.14,187.652 578.927,185.346 581.713,184.188 584.5,184.819 587.287,187.071 590.073,189.989 592.86,192.238 595.646,192.717 598.433,191.101 601.22,188.035 604.006,184.883 606.793,183.112 609.58,183.607 612.366,186.228 615.153,189.833 617.94,192.786 620.726,193.7 623.513,192.098 626.299,188.658 629.086,184.926 631.873,182.611 634.659,182.798 637.446,185.433 640.232,189.332 643.019,192.724 645.806,44.8914 648.592,192.724 651.379,189.332 654.166,185.433 656.952,182.798 659.739,182.611 662.525,184.926 665.312,188.658 668.099,192.098 670.885,193.7 673.672,192.786 676.459,189.833 679.245,186.228 682.032,183.607 684.818,183.112 687.605,184.883 690.392,188.035 693.178,191.101 695.965,192.717 698.752,192.238 701.538,189.989 704.325,187.071 707.111,184.819 709.898,184.188 712.685,185.346 715.471,187.652 718.258,190 721.045,191.352 723.831,191.198 726.618,189.74 729.404,187.744 732.191,186.138 734.978,185.585 737.764,186.209 740.551,187.599 743.338,189.05 746.124,189.922 748.911,189.915 751.697,189.165 754.484,188.118 757.271,187.283 760.057,186.986 762.844,187.25 765.631,187.838 768.417,188.411 771.204,188.714 773.99,188.684 776.777,188.443 779.564,188.189 782.35,188.073 785.137,188.113 787.924,188.211 790.71,188.234 793.497,188.118 796.283,187.911 799.07,187.755 801.857,187.79 804.643,188.059 807.43,188.463 810.217,188.802 813.003,188.879 815.79,188.61 818.576,188.089 821.363,187.552 824.15,187.262 826.936,187.381 829.723,187.876 832.51,188.529 835.296,189.035 838.083,189.152 840.869,188.82 843.656,188.188 846.443,187.549 849.229,187.198 852.016,187.29 854.803,187.773 857.589,188.415 860.376,188.917 863.162,189.061 865.949,188.801 868.736,188.278 871.522,187.746 874.309,187.441 877.096,187.48 879.882,187.815 882.669,188.265 885.455,188.62 888.242,188.734 891.029,188.588 893.815,188.284 896.602,187.982 899.389,187.814 902.175,187.83 904.962,187.985 907.748,188.177 910.535,188.309 913.322,188.338 916.108,188.281 918.895,188.199 921.682,188.15 924.468,188.155 927.255,188.189 930.041,188.206 932.828,188.173 935.615,188.096 938.401,188.019 941.188,188.001 943.975,188.072 946.761,188.215 949.548,188.365 952.334,188.441 955.121,188.391 957.908,188.224 960.694,188.012 963.481,187.856 966.268,187.836 969.054,187.97 971.841,188.202 974.627,188.425 977.414,188.533 980.201,188.474 982.987,188.276 985.774,188.029 988.56,187.849 991.347,187.816 994.134,187.941 996.92,188.162 999.707,188.373 1002.49,188.481 1005.28,188.443 1008.07,188.287 1010.85,188.09 1013.64,187.945 1016.43,187.911 1019.21,187.992 1022,188.138 1022,188.138 " />
</g>

<g fill="#ffffff" fill-opacity="1" stroke="none" transform="matrix(7.57699e-05,0,0,7.57345e-05,-78.6215,-16.0925)"
font-family="Helvetica" font-size="12" font-weight="400" font-style="normal" 
>
<path vector-effect="none" fill-rule="evenodd" d="M9.26e+06,490000 L9.26e+06,650000 L1.011e+07,650000 L1.011e+07,490000 L9.26e+06,490000"/>
</g>

<g fill="#1171be" fill-opacity="1" stroke="#1171be" stroke-opacity="1" stroke-width="0.659722" stroke-linecap="butt" stroke-linejoin="round" transform="matrix(0.757699,0,0,0.757345,-78.6215,-16.0925)"
font-family="Helvetica" font-size="12" font-weight="400" font-style="normal" 
>
<polyline fill="none" vector-effect="none" points="929.973,57 969.286,57 " />
</g>

<g fill="#212121" fill-opacity="1" stroke="#212121" stroke-opacity="1" stroke-width="1" stroke-linecap="square" stroke-linejoin="bevel" transform="matrix(0.757699,0,0,0.757345,658.064,29.7269)"
font-family="Helvetica" font-size="11" font-weight="400" font-style="normal" 
>
<text fill="#212121" fill-opacity="1" stroke="none" xml:space="preserve" x="0" y="0" font-family="Helvetica" font-size="11" font-weight="400" font-style="normal" 
 >Filter 1</text>
</g>

<g fill="none" stroke="#212121" stroke-opacity="1" stroke-width="0.659722" stroke-linecap="butt" stroke-linejoin="miter" stroke-miterlimit="2" transform="matrix(0.757699,0,0,0.757345,-78.6215,-16.0925)"
font-family="Helvetica" font-size="11" font-weight="400" font-style="normal" 
>
<path vector-effect="none" fill-rule="evenodd" d="M926,65 L926,49 L1011,49 L1011,65 L926,65"/>
</g>

<g fill="#ffffff" fill-opacity="1" stroke="none" transform="matrix(7.57699e-05,0,0,7.57345e-05,-78.6215,-16.0925)"
font-family="Helvetica" font-size="11" font-weight="400" font-style="normal" 
>
<path vector-effect="none" fill-rule="evenodd" d="M1.47e+06,2.88e+06 L1.47e+06,4.67e+06 L1.022e+07,4.67e+06 L1.022e+07,2.88e+06 L1.47e+06,2.88e+06"/>
</g>

<g fill="#212121" fill-opacity="1" stroke="#212121" stroke-opacity="1" stroke-width="0.659722" stroke-linecap="square" stroke-linejoin="round" transform="matrix(0.757699,0,0,0.757345,-78.6215,-16.0925)"
font-family="Helvetica" font-size="11" font-weight="400" font-style="normal" 
>
<polyline fill="none" vector-effect="none" points="147,467 1022,467 " />
<polyline fill="none" vector-effect="none" points="147,288 1022,288 " />
<polyline fill="none" vector-effect="none" points="147,467 147,458.25 " />
<polyline fill="none" vector-effect="none" points="147,296.75 147,288 " />
<polyline fill="none" vector-effect="none" points="286.331,467 286.331,458.25 " />
<polyline fill="none" vector-effect="none" points="286.331,296.75 286.331,288 " />
<polyline fill="none" vector-effect="none" points="425.662,467 425.662,458.25 " />
<polyline fill="none" vector-effect="none" points="425.662,296.75 425.662,288 " />
<polyline fill="none" vector-effect="none" points="564.994,467 564.994,458.25 " />
<polyline fill="none" vector-effect="none" points="564.994,296.75 564.994,288 " />
<polyline fill="none" vector-effect="none" points="704.325,467 704.325,458.25 " />
<polyline fill="none" vector-effect="none" points="704.325,296.75 704.325,288 " />
<polyline fill="none" vector-effect="none" points="843.656,467 843.656,458.25 " />
<polyline fill="none" vector-effect="none" points="843.656,296.75 843.656,288 " />
<polyline fill="none" vector-effect="none" points="982.987,467 982.987,458.25 " />
<polyline fill="none" vector-effect="none" points="982.987,296.75 982.987,288 " />
</g>

<g fill="#212121" fill-opacity="1" stroke="#212121" stroke-opacity="1" stroke-width="1" stroke-linecap="square" stroke-linejoin="bevel" transform="matrix(0.757699,0,0,0.757345,30.1084,349.316)"
font-family="Helvetica" font-size="12" font-weight="400" font-style="normal" 
>
<text fill="#212121" fill-opacity="1" stroke="none" xml:space="preserve" x="0" y="0" font-family="Helvetica" font-size="12" font-weight="400" font-style="normal" 
 >0</text>
</g>

<g fill="#212121" fill-opacity="1" stroke="#212121" stroke-opacity="1" stroke-width="1" stroke-linecap="square" stroke-linejoin="bevel" transform="matrix(0.757699,0,0,0.757345,133.406,349.316)"
font-family="Helvetica" font-size="12" font-weight="400" font-style="normal" 
>
<text fill="#212121" fill-opacity="1" stroke="none" xml:space="preserve" x="0" y="0" font-family="Helvetica" font-size="12" font-weight="400" font-style="normal" 
 >50</text>
</g>

<g fill="#212121" fill-opacity="1" stroke="#212121" stroke-opacity="1" stroke-width="1" stroke-linecap="square" stroke-linejoin="bevel" transform="matrix(0.757699,0,0,0.757345,236.326,349.316)"
font-family="Helvetica" font-size="12" font-weight="400" font-style="normal" 
>
<text fill="#212121" fill-opacity="1" stroke="none" xml:space="preserve" x="0" y="0" font-family="Helvetica" font-size="12" font-weight="400" font-style="normal" 
 >100</text>
</g>

<g fill="#212121" fill-opacity="1" stroke="#212121" stroke-opacity="1" stroke-width="1" stroke-linecap="square" stroke-linejoin="bevel" transform="matrix(0.757699,0,0,0.757345,341.897,349.316)"
font-family="Helvetica" font-size="12" font-weight="400" font-style="normal" 
>
<text fill="#212121" fill-opacity="1" stroke="none" xml:space="preserve" x="0" y="0" font-family="Helvetica" font-size="12" font-weight="400" font-style="normal" 
 >150</text>
</g>

<g fill="#212121" fill-opacity="1" stroke="#212121" stroke-opacity="1" stroke-width="1" stroke-linecap="square" stroke-linejoin="bevel" transform="matrix(0.757699,0,0,0.757345,447.468,349.316)"
font-family="Helvetica" font-size="12" font-weight="400" font-style="normal" 
>
<text fill="#212121" fill-opacity="1" stroke="none" xml:space="preserve" x="0" y="0" font-family="Helvetica" font-size="12" font-weight="400" font-style="normal" 
 >200</text>
</g>

<g fill="#212121" fill-opacity="1" stroke="#212121" stroke-opacity="1" stroke-width="1" stroke-linecap="square" stroke-linejoin="bevel" transform="matrix(0.757699,0,0,0.757345,553.039,349.316)"
font-family="Helvetica" font-size="12" font-weight="400" font-style="normal" 
>
<text fill="#212121" fill-opacity="1" stroke="none" xml:space="preserve" x="0" y="0" font-family="Helvetica" font-size="12" font-weight="400" font-style="normal" 
 >250</text>
</g>

<g fill="#212121" fill-opacity="1" stroke="#212121" stroke-opacity="1" stroke-width="1" stroke-linecap="square" stroke-linejoin="bevel" transform="matrix(0.757699,0,0,0.757345,658.61,349.316)"
font-family="Helvetica" font-size="12" font-weight="400" font-style="normal" 
>
<text fill="#212121" fill-opacity="1" stroke="none" xml:space="preserve" x="0" y="0" font-family="Helvetica" font-size="12" font-weight="400" font-style="normal" 
 >300</text>
</g>

<g fill="#212121" fill-opacity="1" stroke="#212121" stroke-opacity="1" stroke-width="0.659722" stroke-linecap="square" stroke-linejoin="round" transform="matrix(0.757699,0,0,0.757345,-78.6215,-16.0925)"
font-family="Helvetica" font-size="12" font-weight="400" font-style="normal" 
>
<polyline fill="none" vector-effect="none" points="147,467 147,288 " />
<polyline fill="none" vector-effect="none" points="1022,467 1022,288 " />
<polyline fill="none" vector-effect="none" points="147,467 155.75,467 " />
<polyline fill="none" vector-effect="none" points="1013.25,467 1022,467 " />
<polyline fill="none" vector-effect="none" points="147,437.167 155.75,437.167 " />
<polyline fill="none" vector-effect="none" points="1013.25,437.167 1022,437.167 " />
<polyline fill="none" vector-effect="none" points="147,407.333 155.75,407.333 " />
<polyline fill="none" vector-effect="none" points="1013.25,407.333 1022,407.333 " />
<polyline fill="none" vector-effect="none" points="147,377.5 155.75,377.5 " />
<polyline fill="none" vector-effect="none" points="1013.25,377.5 1022,377.5 " />
<polyline fill="none" vector-effect="none" points="147,347.667 155.75,347.667 " />
<polyline fill="none" vector-effect="none" points="1013.25,347.667 1022,347.667 " />
<polyline fill="none" vector-effect="none" points="147,317.833 155.75,317.833 " />
<polyline fill="none" vector-effect="none" points="1013.25,317.833 1022,317.833 " />
<polyline fill="none" vector-effect="none" points="147,288 155.75,288 " />
<polyline fill="none" vector-effect="none" points="1013.25,288 1022,288 " />
</g>

<g fill="#212121" fill-opacity="1" stroke="#212121" stroke-opacity="1" stroke-width="1" stroke-linecap="square" stroke-linejoin="bevel" transform="matrix(0.757699,0,0,0.757345,13.4496,340.617)"
font-family="Helvetica" font-size="12" font-weight="400" font-style="normal" 
>
<text fill="#212121" fill-opacity="1" stroke="none" xml:space="preserve" x="0" y="0" font-family="Helvetica" font-size="12" font-weight="400" font-style="normal" 
 >-0.2</text>
</g>

<g fill="#212121" fill-opacity="1" stroke="#212121" stroke-opacity="1" stroke-width="1" stroke-linecap="square" stroke-linejoin="bevel" transform="matrix(0.757699,0,0,0.757345,24.0573,318.023)"
font-family="Helvetica" font-size="12" font-weight="400" font-style="normal" 
>
<text fill="#212121" fill-opacity="1" stroke="none" xml:space="preserve" x="0" y="0" font-family="Helvetica" font-size="12" font-weight="400" font-style="normal" 
 >0</text>
</g>

<g fill="#212121" fill-opacity="1" stroke="#212121" stroke-opacity="1" stroke-width="1" stroke-linecap="square" stroke-linejoin="bevel" transform="matrix(0.757699,0,0,0.757345,16.4803,295.429)"
font-family="Helvetica" font-size="12" font-weight="400" font-style="normal" 
>
<text fill="#212121" fill-opacity="1" stroke="none" xml:space="preserve" x="0" y="0" font-family="Helvetica" font-size="12" font-weight="400" font-style="normal" 
 >0.2</text>
</g>

<g fill="#212121" fill-opacity="1" stroke="#212121" stroke-opacity="1" stroke-width="1" stroke-linecap="square" stroke-linejoin="bevel" transform="matrix(0.757699,0,0,0.757345,16.4803,272.835)"
font-family="Helvetica" font-size="12" font-weight="400" font-style="normal" 
>
<text fill="#212121" fill-opacity="1" stroke="none" xml:space="preserve" x="0" y="0" font-family="Helvetica" font-size="12" font-weight="400" font-style="normal" 
 >0.4</text>
</g>

<g fill="#212121" fill-opacity="1" stroke="#212121" stroke-opacity="1" stroke-width="1" stroke-linecap="square" stroke-linejoin="bevel" transform="matrix(0.757699,0,0,0.757345,16.4803,250.24)"
font-family="Helvetica" font-size="12" font-weight="400" font-style="normal" 
>
<text fill="#212121" fill-opacity="1" stroke="none" xml:space="preserve" x="0" y="0" font-family="Helvetica" font-size="12" font-weight="400" font-style="normal" 
 >0.6</text>
</g>

<g fill="#212121" fill-opacity="1" stroke="#212121" stroke-opacity="1" stroke-width="1" stroke-linecap="square" stroke-linejoin="bevel" transform="matrix(0.757699,0,0,0.757345,16.4803,227.646)"
font-family="Helvetica" font-size="12" font-weight="400" font-style="normal" 
>
<text fill="#212121" fill-opacity="1" stroke="none" xml:space="preserve" x="0" y="0" font-family="Helvetica" font-size="12" font-weight="400" font-style="normal" 
 >0.8</text>
</g>

<g fill="#212121" fill-opacity="1" stroke="#212121" stroke-opacity="1" stroke-width="1" stroke-linecap="square" stroke-linejoin="bevel" transform="matrix(0.757699,0,0,0.757345,24.0573,205.052)"
font-family="Helvetica" font-size="12" font-weight="400" font-style="normal" 
>
<text fill="#212121" fill-opacity="1" stroke="none" xml:space="preserve" x="0" y="0" font-family="Helvetica" font-size="12" font-weight="400" font-style="normal" 
 >1</text>
</g>

<g fill="none" stroke="#1171be" stroke-opacity="1" stroke-width="0.659722" stroke-linecap="butt" stroke-linejoin="round" transform="matrix(0.757699,0,0,0.757345,-78.6215,-16.0925)"
font-family="Helvetica" font-size="12" font-weight="400" font-style="normal" 
>
<polyline fill="none" vector-effect="none" points="147,437.14 149.787,438.935 152.573,437.14 155.36,437.422 158.146,437.31 160.933,436.975 163.72,436.961 166.506,437.28 169.293,437.408 172.08,437.142 174.866,436.918 177.653,437.102 180.439,437.393 183.226,437.314 186.013,436.991 188.799,436.953 191.586,437.268 194.373,437.421 197.159,437.156 199.946,436.903 202.732,437.082 205.519,437.404 208.306,437.339 211.092,436.989 213.879,436.929 216.666,437.259 219.452,437.437 222.239,437.172 225.025,436.902 227.812,437.067 230.599,437.389 233.385,437.341 236.172,437.015 238.959,436.948 241.745,437.233 244.532,437.392 247.318,437.183 250.105,436.97 252.892,437.086 255.678,437.309 258.465,437.281 261.252,437.088 264.038,437.054 266.825,437.19 269.611,437.248 272.398,437.175 275.185,437.133 277.971,437.162 280.758,437.155 283.545,437.134 286.331,437.202 289.118,437.26 291.904,437.145 294.691,437.006 297.478,437.129 300.264,437.375 303.051,437.302 305.838,436.953 308.624,436.91 311.411,437.328 314.197,437.54 316.984,437.121 319.771,436.712 322.557,437.044 325.344,437.638 328.131,437.486 330.917,436.76 333.704,436.658 336.49,437.423 339.277,437.818 342.064,437.133 344.85,436.454 347.637,436.938 350.424,437.837 353.21,437.656 355.997,436.645 358.783,436.467 361.57,437.45 364.357,437.987 367.143,437.176 369.93,436.34 372.717,436.859 375.503,437.88 378.29,437.726 381.076,436.665 383.863,436.446 386.65,437.394 389.436,437.934 392.223,437.219 395.01,436.47 397.796,436.879 400.583,437.698 403.369,437.601 406.156,436.851 408.943,436.696 411.729,437.273 414.516,437.569 417.303,437.211 420.089,436.904 422.876,437.069 425.662,437.27 428.449,437.207 431.236,437.181 434.022,437.274 436.809,437.131 439.596,436.867 442.382,437.092 445.169,437.631 447.955,437.482 450.742,436.638 453.529,436.516 456.315,437.596 459.102,438.174 461.889,437.033 464.675,435.875 467.462,436.819 470.248,438.571 473.035,438.124 475.822,435.901 478.608,435.572 481.395,438.003 484.182,439.3 486.968,437.038 489.755,434.726 492.541,436.384 495.328,439.575 498.115,438.94 500.901,435.193 503.688,434.488 506.475,438.307 509.261,440.493 512.048,437.18 514.834,433.6 517.621,435.825 520.408,440.471 523.194,439.818 525.981,434.649 528.768,433.436 531.554,438.439 534.341,441.551 537.127,437.45 539.914,432.697 542.701,435.231 545.487,441.094 548.274,440.608 551.06,434.372 553.847,432.603 556.634,438.372 559.42,442.28 562.207,437.796 564.994,432.184 567.78,434.718 570.567,441.332 573.354,441.153 576.14,434.404 578.927,432.154 581.713,438.134 584.5,293.373 587.287,438.134 590.073,432.154 592.86,434.404 595.646,441.153 598.433,441.332 601.22,434.718 604.006,432.184 606.793,437.796 609.58,442.28 612.366,438.372 615.153,432.603 617.94,434.372 620.726,440.608 623.513,441.094 626.299,435.231 629.086,432.697 631.873,437.45 634.659,441.551 637.446,438.439 640.232,433.436 643.019,434.649 645.806,439.818 648.592,440.471 651.379,435.825 654.166,433.6 656.952,437.18 659.739,440.493 662.525,438.307 665.312,434.488 668.099,435.193 670.885,438.94 673.672,439.575 676.459,436.384 679.245,434.726 682.032,437.038 684.818,439.3 687.605,438.003 690.392,435.572 693.178,435.901 695.965,438.124 698.752,438.571 701.538,436.819 704.325,435.875 707.111,437.033 709.898,438.174 712.685,437.596 715.471,436.516 718.258,436.638 721.045,437.482 723.831,437.631 726.618,437.092 729.404,436.867 732.191,437.131 734.978,437.274 737.764,437.181 740.551,437.207 743.338,437.27 746.124,437.069 748.911,436.904 751.697,437.211 754.484,437.569 757.271,437.273 760.057,436.696 762.844,436.851 765.631,437.601 768.417,437.698 771.204,436.879 773.99,436.47 776.777,437.219 779.564,437.934 782.35,437.394 785.137,436.446 787.924,436.665 790.71,437.726 793.497,437.88 796.283,436.859 799.07,436.34 801.857,437.176 804.643,437.987 807.43,437.45 810.217,436.467 813.003,436.645 815.79,437.656 818.576,437.837 821.363,436.938 824.15,436.454 826.936,437.133 829.723,437.818 832.51,437.423 835.296,436.658 838.083,436.76 840.869,437.486 843.656,437.638 846.443,437.044 849.229,436.712 852.016,437.121 854.803,437.54 857.589,437.328 860.376,436.91 863.162,436.953 865.949,437.302 868.736,437.375 871.522,437.129 874.309,437.006 877.096,437.145 879.882,437.26 882.669,437.202 885.455,437.134 888.242,437.155 891.029,437.162 893.815,437.133 896.602,437.175 899.389,437.248 902.175,437.19 904.962,437.054 907.748,437.088 910.535,437.281 913.322,437.309 916.108,437.086 918.895,436.97 921.682,437.183 924.468,437.392 927.255,437.233 930.041,436.948 932.828,437.015 935.615,437.341 938.401,437.389 941.188,437.067 943.975,436.902 946.761,437.172 949.548,437.437 952.334,437.259 955.121,436.929 957.908,436.989 960.694,437.339 963.481,437.404 966.268,437.082 969.054,436.903 971.841,437.156 974.627,437.421 977.414,437.268 980.201,436.953 982.987,436.991 985.774,437.314 988.56,437.393 991.347,437.102 994.134,436.918 996.92,437.142 999.707,437.408 1002.49,437.28 1005.28,436.961 1008.07,436.975 1010.85,437.31 1013.64,437.422 1016.43,437.14 1019.21,438.935 1022,437.14 " />
</g>

<g fill="#ffffff" fill-opacity="1" stroke="none" transform="matrix(7.57699e-05,0,0,7.57345e-05,-78.6215,-16.0925)"
font-family="Helvetica" font-size="12" font-weight="400" font-style="normal" 
>
<path vector-effect="none" fill-rule="evenodd" d="M9.26e+06,2.98e+06 L9.26e+06,3.14e+06 L1.011e+07,3.14e+06 L1.011e+07,2.98e+06 L9.26e+06,2.98e+06"/>
</g>

<g fill="#1171be" fill-opacity="1" stroke="#1171be" stroke-opacity="1" stroke-width="0.659722" stroke-linecap="butt" stroke-linejoin="round" transform="matrix(0.757699,0,0,0.757345,-78.6215,-16.0925)"
font-family="Helvetica" font-size="12" font-weight="400" font-style="normal" 
>
<polyline fill="none" vector-effect="none" points="929.973,306 969.286,306 " />
</g>

<g fill="#212121" fill-opacity="1" stroke="#212121" stroke-opacity="1" stroke-width="1" stroke-linecap="square" stroke-linejoin="bevel" transform="matrix(0.757699,0,0,0.757345,658.064,218.306)"
font-family="Helvetica" font-size="11" font-weight="400" font-style="normal" 
>
<text fill="#212121" fill-opacity="1" stroke="none" xml:space="preserve" x="0" y="0" font-family="Helvetica" font-size="11" font-weight="400" font-style="normal" 
 >Filter 2</text>
</g>

<g fill="none" stroke="#212121" stroke-opacity="1" stroke-width="0.659722" stroke-linecap="butt" stroke-linejoin="miter" stroke-miterlimit="2" transform="matrix(0.757699,0,0,0.757345,-78.6215,-16.0925)"
font-family="Helvetica" font-size="11" font-weight="400" font-style="normal" 
>
<path vector-effect="none" fill-rule="evenodd" d="M926,314 L926,298 L1011,298 L1011,314 L926,314"/>
</g>

<g fill="#212121" fill-opacity="1" stroke="#212121" stroke-opacity="1" stroke-width="1" stroke-linecap="square" stroke-linejoin="bevel" transform="matrix(0.757699,0,0,0.757345,361.223,363.789)"
font-family="Helvetica" font-size="14" font-weight="400" font-style="normal" 
>
<text fill="#212121" fill-opacity="1" stroke="none" xml:space="preserve" x="0" y="0" font-family="Helvetica" font-size="14" font-weight="400" font-style="normal" 
 >n</text>
</g>

<g fill="#212121" fill-opacity="1" stroke="#212121" stroke-opacity="1" stroke-width="1" stroke-linecap="square" stroke-linejoin="bevel" transform="matrix(0,-0.757345,0.757699,0,9.09278,184.225)"
font-family="Helvetica" font-size="14" font-weight="400" font-style="normal" 
>
<text fill="#212121" fill-opacity="1" stroke="none" xml:space="preserve" x="0" y="0" font-family="Helvetica" font-size="14" font-weight="400" font-style="normal" 
 >h[n]</text>
</g>

<g fill="#212121" fill-opacity="1" stroke="#212121" stroke-opacity="1" stroke-width="1" stroke-linecap="square" stroke-linejoin="bevel" transform="matrix(0.757699,0,0,0.757345,319.55,9.08924)"
font-family="Helvetica" font-size="14" font-weight="700" font-style="normal" 
>
<text fill="#212121" fill-opacity="1" stroke="none" xml:space="preserve" x="0" y="0" font-family="Helvetica" font-size="14" font-weight="700" font-style="normal" 
 >Filter Coefficients</text>
</g>
</g>
</svg>
