<?xml version="1.0" encoding="UTF-8" standalone="no"?>
<svg width="246.944mm" height="129.822mm"
 viewBox="0 0 700 368"
 xmlns="http://www.w3.org/2000/svg" xmlns:xlink="http://www.w3.org/1999/xlink"  version="1.2" baseProfile="tiny">
<title>Qt SVG Document</title>
<desc>MATLAB, The MathWorks, Inc. Version 25.1.0.2973910 R2025a Update 1</desc>
<defs>
</defs>
<g fill="none" stroke="black" stroke-width="1" fill-rule="evenodd" stroke-linecap="square" stroke-linejoin="bevel" >

<g fill="#ffffff" fill-opacity="1" stroke="none" transform="matrix(0.757288,0,0,0.757348,-78.578,-16.0925)"
font-family="Sans Serif" font-size="9" font-weight="400" font-style="normal" 
>
<path vector-effect="none" fill-rule="evenodd" d="M102,20 L1027,20 L1027,507 L102,507 L102,20"/>
</g>

<g fill="#ffffff" fill-opacity="1" stroke="none" transform="matrix(7.57288e-05,0,0,7.57348e-05,-78.578,-16.0925)"
font-family="Sans Serif" font-size="9" font-weight="400" font-style="normal" 
>
<path vector-effect="none" fill-rule="evenodd" d="M1.47e+06,390000 L1.47e+06,2.18e+06 L1.023e+07,2.18e+06 L1.023e+07,390000 L1.47e+06,390000"/>
</g>

<g fill="#212121" fill-opacity="1" stroke="#212121" stroke-opacity="1" stroke-width="0.659722" stroke-linecap="square" stroke-linejoin="round" transform="matrix(0.757288,0,0,0.757348,-78.578,-16.0925)"
font-family="Sans Serif" font-size="9" font-weight="400" font-style="normal" 
>
<polyline fill="none" vector-effect="none" points="147,218 1023,218 " />
<polyline fill="none" vector-effect="none" points="147,39 1023,39 " />
<polyline fill="none" vector-effect="none" points="147,218 147,209.24 " />
<polyline fill="none" vector-effect="none" points="147,47.76 147,39 " />
<polyline fill="none" vector-effect="none" points="256.5,218 256.5,209.24 " />
<polyline fill="none" vector-effect="none" points="256.5,47.76 256.5,39 " />
<polyline fill="none" vector-effect="none" points="366,218 366,209.24 " />
<polyline fill="none" vector-effect="none" points="366,47.76 366,39 " />
<polyline fill="none" vector-effect="none" points="475.5,218 475.5,209.24 " />
<polyline fill="none" vector-effect="none" points="475.5,47.76 475.5,39 " />
<polyline fill="none" vector-effect="none" points="585,218 585,209.24 " />
<polyline fill="none" vector-effect="none" points="585,47.76 585,39 " />
<polyline fill="none" vector-effect="none" points="694.5,218 694.5,209.24 " />
<polyline fill="none" vector-effect="none" points="694.5,47.76 694.5,39 " />
<polyline fill="none" vector-effect="none" points="804,218 804,209.24 " />
<polyline fill="none" vector-effect="none" points="804,47.76 804,39 " />
<polyline fill="none" vector-effect="none" points="913.5,218 913.5,209.24 " />
<polyline fill="none" vector-effect="none" points="913.5,47.76 913.5,39 " />
<polyline fill="none" vector-effect="none" points="1023,218 1023,209.24 " />
<polyline fill="none" vector-effect="none" points="1023,47.76 1023,39 " />
</g>

<g fill="#212121" fill-opacity="1" stroke="#212121" stroke-opacity="1" stroke-width="1" stroke-linecap="square" stroke-linejoin="bevel" transform="matrix(0.757288,0,0,0.757348,30.0929,160.738)"
font-family="Helvetica" font-size="12" font-weight="400" font-style="normal" 
>
<text fill="#212121" fill-opacity="1" stroke="none" xml:space="preserve" x="0" y="0" font-family="Helvetica" font-size="12" font-weight="400" font-style="normal" 
 >0</text>
</g>

<g fill="#212121" fill-opacity="1" stroke="#212121" stroke-opacity="1" stroke-width="1" stroke-linecap="square" stroke-linejoin="bevel" transform="matrix(0.757288,0,0,0.757348,109.23,160.738)"
font-family="Helvetica" font-size="12" font-weight="400" font-style="normal" 
>
<text fill="#212121" fill-opacity="1" stroke="none" xml:space="preserve" x="0" y="0" font-family="Helvetica" font-size="12" font-weight="400" font-style="normal" 
 >0.5</text>
</g>

<g fill="#212121" fill-opacity="1" stroke="#212121" stroke-opacity="1" stroke-width="1" stroke-linecap="square" stroke-linejoin="bevel" transform="matrix(0.757288,0,0,0.757348,195.939,160.738)"
font-family="Helvetica" font-size="12" font-weight="400" font-style="normal" 
>
<text fill="#212121" fill-opacity="1" stroke="none" xml:space="preserve" x="0" y="0" font-family="Helvetica" font-size="12" font-weight="400" font-style="normal" 
 >1</text>
</g>

<g fill="#212121" fill-opacity="1" stroke="#212121" stroke-opacity="1" stroke-width="1" stroke-linecap="square" stroke-linejoin="bevel" transform="matrix(0.757288,0,0,0.757348,275.076,160.738)"
font-family="Helvetica" font-size="12" font-weight="400" font-style="normal" 
>
<text fill="#212121" fill-opacity="1" stroke="none" xml:space="preserve" x="0" y="0" font-family="Helvetica" font-size="12" font-weight="400" font-style="normal" 
 >1.5</text>
</g>

<g fill="#212121" fill-opacity="1" stroke="#212121" stroke-opacity="1" stroke-width="1" stroke-linecap="square" stroke-linejoin="bevel" transform="matrix(0.757288,0,0,0.757348,361.785,160.738)"
font-family="Helvetica" font-size="12" font-weight="400" font-style="normal" 
>
<text fill="#212121" fill-opacity="1" stroke="none" xml:space="preserve" x="0" y="0" font-family="Helvetica" font-size="12" font-weight="400" font-style="normal" 
 >2</text>
</g>

<g fill="#212121" fill-opacity="1" stroke="#212121" stroke-opacity="1" stroke-width="1" stroke-linecap="square" stroke-linejoin="bevel" transform="matrix(0.757288,0,0,0.757348,440.922,160.738)"
font-family="Helvetica" font-size="12" font-weight="400" font-style="normal" 
>
<text fill="#212121" fill-opacity="1" stroke="none" xml:space="preserve" x="0" y="0" font-family="Helvetica" font-size="12" font-weight="400" font-style="normal" 
 >2.5</text>
</g>

<g fill="#212121" fill-opacity="1" stroke="#212121" stroke-opacity="1" stroke-width="1" stroke-linecap="square" stroke-linejoin="bevel" transform="matrix(0.757288,0,0,0.757348,527.631,160.738)"
font-family="Helvetica" font-size="12" font-weight="400" font-style="normal" 
>
<text fill="#212121" fill-opacity="1" stroke="none" xml:space="preserve" x="0" y="0" font-family="Helvetica" font-size="12" font-weight="400" font-style="normal" 
 >3</text>
</g>

<g fill="#212121" fill-opacity="1" stroke="#212121" stroke-opacity="1" stroke-width="1" stroke-linecap="square" stroke-linejoin="bevel" transform="matrix(0.757288,0,0,0.757348,606.768,160.738)"
font-family="Helvetica" font-size="12" font-weight="400" font-style="normal" 
>
<text fill="#212121" fill-opacity="1" stroke="none" xml:space="preserve" x="0" y="0" font-family="Helvetica" font-size="12" font-weight="400" font-style="normal" 
 >3.5</text>
</g>

<g fill="#212121" fill-opacity="1" stroke="#212121" stroke-opacity="1" stroke-width="1" stroke-linecap="square" stroke-linejoin="bevel" transform="matrix(0.757288,0,0,0.757348,693.477,160.738)"
font-family="Helvetica" font-size="12" font-weight="400" font-style="normal" 
>
<text fill="#212121" fill-opacity="1" stroke="none" xml:space="preserve" x="0" y="0" font-family="Helvetica" font-size="12" font-weight="400" font-style="normal" 
 >4</text>
</g>

<g fill="#212121" fill-opacity="1" stroke="#212121" stroke-opacity="1" stroke-width="0.659722" stroke-linecap="square" stroke-linejoin="round" transform="matrix(0.757288,0,0,0.757348,-78.578,-16.0925)"
font-family="Helvetica" font-size="12" font-weight="400" font-style="normal" 
>
<polyline fill="none" vector-effect="none" points="147,218 147,39 " />
<polyline fill="none" vector-effect="none" points="1023,218 1023,39 " />
<polyline fill="none" vector-effect="none" points="147,218 155.76,218 " />
<polyline fill="none" vector-effect="none" points="1014.24,218 1023,218 " />
<polyline fill="none" vector-effect="none" points="147,128.5 155.76,128.5 " />
<polyline fill="none" vector-effect="none" points="1014.24,128.5 1023,128.5 " />
<polyline fill="none" vector-effect="none" points="147,39 155.76,39 " />
<polyline fill="none" vector-effect="none" points="1014.24,39 1023,39 " />
</g>

<g fill="#212121" fill-opacity="1" stroke="#212121" stroke-opacity="1" stroke-width="1" stroke-linecap="square" stroke-linejoin="bevel" transform="matrix(0.757288,0,0,0.757348,8.89935,152.039)"
font-family="Helvetica" font-size="12" font-weight="400" font-style="normal" 
>
<text fill="#212121" fill-opacity="1" stroke="none" xml:space="preserve" x="0" y="0" font-family="Helvetica" font-size="12" font-weight="400" font-style="normal" 
 >-0.05</text>
</g>

<g fill="#212121" fill-opacity="1" stroke="#212121" stroke-opacity="1" stroke-width="1" stroke-linecap="square" stroke-linejoin="bevel" transform="matrix(0.757288,0,0,0.757348,24.0451,84.2561)"
font-family="Helvetica" font-size="12" font-weight="400" font-style="normal" 
>
<text fill="#212121" fill-opacity="1" stroke="none" xml:space="preserve" x="0" y="0" font-family="Helvetica" font-size="12" font-weight="400" font-style="normal" 
 >0</text>
</g>

<g fill="#212121" fill-opacity="1" stroke="#212121" stroke-opacity="1" stroke-width="1" stroke-linecap="square" stroke-linejoin="bevel" transform="matrix(0.757288,0,0,0.757348,11.9285,16.4734)"
font-family="Helvetica" font-size="12" font-weight="400" font-style="normal" 
>
<text fill="#212121" fill-opacity="1" stroke="none" xml:space="preserve" x="0" y="0" font-family="Helvetica" font-size="12" font-weight="400" font-style="normal" 
 >0.05</text>
</g>

<g fill="none" stroke="#1171be" stroke-opacity="1" stroke-width="0.659722" stroke-linecap="butt" stroke-linejoin="round" transform="matrix(0.757288,0,0,0.757348,-78.578,-16.0925)"
font-family="Helvetica" font-size="12" font-weight="400" font-style="normal" 
>
<polyline fill="none" vector-effect="none" points="179.406,139.623 211.812,172.418 244.218,167.03 276.624,139.301 309.03,182.971 341.436,132.057 373.842,63.6966 406.248,134.169 438.654,131.922 471.06,143.792 503.466,115.761 535.872,100.302 568.279,84.645 600.685,165.141 633.091,152.518 665.497,109.34 697.903,182.119 730.309,161.545 762.715,144.739 795.121,91.2984 827.527,64.1298 859.933,53.7048 892.339,151.836 924.745,159.916 957.151,131.112 989.557,206.714 1021.96,178.171 " />
</g>

<g fill="#ffffff" fill-opacity="1" stroke="none" transform="matrix(7.57288e-05,0,0,7.57348e-05,-78.578,-16.0925)"
font-family="Helvetica" font-size="12" font-weight="400" font-style="normal" 
>
<path vector-effect="none" fill-rule="evenodd" d="M9.13e+06,490000 L9.13e+06,650000 L1.012e+07,650000 L1.012e+07,490000 L9.13e+06,490000"/>
</g>

<g fill="#1171be" fill-opacity="1" stroke="#1171be" stroke-opacity="1" stroke-width="0.659722" stroke-linecap="butt" stroke-linejoin="round" transform="matrix(0.757288,0,0,0.757348,-78.578,-16.0925)"
font-family="Helvetica" font-size="12" font-weight="400" font-style="normal" 
>
<polyline fill="none" vector-effect="none" points="916.977,57 956.328,57 " />
</g>

<g fill="#212121" fill-opacity="1" stroke="#212121" stroke-opacity="1" stroke-width="1" stroke-linecap="square" stroke-linejoin="bevel" transform="matrix(0.757288,0,0,0.757348,647.897,29.727)"
font-family="Helvetica" font-size="11" font-weight="400" font-style="normal" 
>
<text fill="#212121" fill-opacity="1" stroke="none" xml:space="preserve" x="0" y="0" font-family="Helvetica" font-size="11" font-weight="400" font-style="normal" 
 >Student 1</text>
</g>

<g fill="none" stroke="#212121" stroke-opacity="1" stroke-width="0.659722" stroke-linecap="butt" stroke-linejoin="miter" stroke-miterlimit="2" transform="matrix(0.757288,0,0,0.757348,-78.578,-16.0925)"
font-family="Helvetica" font-size="11" font-weight="400" font-style="normal" 
>
<path vector-effect="none" fill-rule="evenodd" d="M913,65 L913,49 L1012,49 L1012,65 L913,65"/>
</g>

<g fill="#ffffff" fill-opacity="1" stroke="none" transform="matrix(7.57288e-05,0,0,7.57348e-05,-78.578,-16.0925)"
font-family="Helvetica" font-size="11" font-weight="400" font-style="normal" 
>
<path vector-effect="none" fill-rule="evenodd" d="M1.47e+06,2.88e+06 L1.47e+06,4.67e+06 L1.023e+07,4.67e+06 L1.023e+07,2.88e+06 L1.47e+06,2.88e+06"/>
</g>

<g fill="#212121" fill-opacity="1" stroke="#212121" stroke-opacity="1" stroke-width="0.659722" stroke-linecap="square" stroke-linejoin="round" transform="matrix(0.757288,0,0,0.757348,-78.578,-16.0925)"
font-family="Helvetica" font-size="11" font-weight="400" font-style="normal" 
>
<polyline fill="none" vector-effect="none" points="147,467 1023,467 " />
<polyline fill="none" vector-effect="none" points="147,288 1023,288 " />
<polyline fill="none" vector-effect="none" points="147,467 147,458.24 " />
<polyline fill="none" vector-effect="none" points="147,296.76 147,288 " />
<polyline fill="none" vector-effect="none" points="256.5,467 256.5,458.24 " />
<polyline fill="none" vector-effect="none" points="256.5,296.76 256.5,288 " />
<polyline fill="none" vector-effect="none" points="366,467 366,458.24 " />
<polyline fill="none" vector-effect="none" points="366,296.76 366,288 " />
<polyline fill="none" vector-effect="none" points="475.5,467 475.5,458.24 " />
<polyline fill="none" vector-effect="none" points="475.5,296.76 475.5,288 " />
<polyline fill="none" vector-effect="none" points="585,467 585,458.24 " />
<polyline fill="none" vector-effect="none" points="585,296.76 585,288 " />
<polyline fill="none" vector-effect="none" points="694.5,467 694.5,458.24 " />
<polyline fill="none" vector-effect="none" points="694.5,296.76 694.5,288 " />
<polyline fill="none" vector-effect="none" points="804,467 804,458.24 " />
<polyline fill="none" vector-effect="none" points="804,296.76 804,288 " />
<polyline fill="none" vector-effect="none" points="913.5,467 913.5,458.24 " />
<polyline fill="none" vector-effect="none" points="913.5,296.76 913.5,288 " />
<polyline fill="none" vector-effect="none" points="1023,467 1023,458.24 " />
<polyline fill="none" vector-effect="none" points="1023,296.76 1023,288 " />
</g>

<g fill="#212121" fill-opacity="1" stroke="#212121" stroke-opacity="1" stroke-width="1" stroke-linecap="square" stroke-linejoin="bevel" transform="matrix(0.757288,0,0,0.757348,30.0929,349.317)"
font-family="Helvetica" font-size="12" font-weight="400" font-style="normal" 
>
<text fill="#212121" fill-opacity="1" stroke="none" xml:space="preserve" x="0" y="0" font-family="Helvetica" font-size="12" font-weight="400" font-style="normal" 
 >0</text>
</g>

<g fill="#212121" fill-opacity="1" stroke="#212121" stroke-opacity="1" stroke-width="1" stroke-linecap="square" stroke-linejoin="bevel" transform="matrix(0.757288,0,0,0.757348,109.23,349.317)"
font-family="Helvetica" font-size="12" font-weight="400" font-style="normal" 
>
<text fill="#212121" fill-opacity="1" stroke="none" xml:space="preserve" x="0" y="0" font-family="Helvetica" font-size="12" font-weight="400" font-style="normal" 
 >0.5</text>
</g>

<g fill="#212121" fill-opacity="1" stroke="#212121" stroke-opacity="1" stroke-width="1" stroke-linecap="square" stroke-linejoin="bevel" transform="matrix(0.757288,0,0,0.757348,195.939,349.317)"
font-family="Helvetica" font-size="12" font-weight="400" font-style="normal" 
>
<text fill="#212121" fill-opacity="1" stroke="none" xml:space="preserve" x="0" y="0" font-family="Helvetica" font-size="12" font-weight="400" font-style="normal" 
 >1</text>
</g>

<g fill="#212121" fill-opacity="1" stroke="#212121" stroke-opacity="1" stroke-width="1" stroke-linecap="square" stroke-linejoin="bevel" transform="matrix(0.757288,0,0,0.757348,275.076,349.317)"
font-family="Helvetica" font-size="12" font-weight="400" font-style="normal" 
>
<text fill="#212121" fill-opacity="1" stroke="none" xml:space="preserve" x="0" y="0" font-family="Helvetica" font-size="12" font-weight="400" font-style="normal" 
 >1.5</text>
</g>

<g fill="#212121" fill-opacity="1" stroke="#212121" stroke-opacity="1" stroke-width="1" stroke-linecap="square" stroke-linejoin="bevel" transform="matrix(0.757288,0,0,0.757348,361.785,349.317)"
font-family="Helvetica" font-size="12" font-weight="400" font-style="normal" 
>
<text fill="#212121" fill-opacity="1" stroke="none" xml:space="preserve" x="0" y="0" font-family="Helvetica" font-size="12" font-weight="400" font-style="normal" 
 >2</text>
</g>

<g fill="#212121" fill-opacity="1" stroke="#212121" stroke-opacity="1" stroke-width="1" stroke-linecap="square" stroke-linejoin="bevel" transform="matrix(0.757288,0,0,0.757348,440.922,349.317)"
font-family="Helvetica" font-size="12" font-weight="400" font-style="normal" 
>
<text fill="#212121" fill-opacity="1" stroke="none" xml:space="preserve" x="0" y="0" font-family="Helvetica" font-size="12" font-weight="400" font-style="normal" 
 >2.5</text>
</g>

<g fill="#212121" fill-opacity="1" stroke="#212121" stroke-opacity="1" stroke-width="1" stroke-linecap="square" stroke-linejoin="bevel" transform="matrix(0.757288,0,0,0.757348,527.631,349.317)"
font-family="Helvetica" font-size="12" font-weight="400" font-style="normal" 
>
<text fill="#212121" fill-opacity="1" stroke="none" xml:space="preserve" x="0" y="0" font-family="Helvetica" font-size="12" font-weight="400" font-style="normal" 
 >3</text>
</g>

<g fill="#212121" fill-opacity="1" stroke="#212121" stroke-opacity="1" stroke-width="1" stroke-linecap="square" stroke-linejoin="bevel" transform="matrix(0.757288,0,0,0.757348,606.768,349.317)"
font-family="Helvetica" font-size="12" font-weight="400" font-style="normal" 
>
<text fill="#212121" fill-opacity="1" stroke="none" xml:space="preserve" x="0" y="0" font-family="Helvetica" font-size="12" font-weight="400" font-style="normal" 
 >3.5</text>
</g>

<g fill="#212121" fill-opacity="1" stroke="#212121" stroke-opacity="1" stroke-width="1" stroke-linecap="square" stroke-linejoin="bevel" transform="matrix(0.757288,0,0,0.757348,693.477,349.317)"
font-family="Helvetica" font-size="12" font-weight="400" font-style="normal" 
>
<text fill="#212121" fill-opacity="1" stroke="none" xml:space="preserve" x="0" y="0" font-family="Helvetica" font-size="12" font-weight="400" font-style="normal" 
 >4</text>
</g>

<g fill="#212121" fill-opacity="1" stroke="#212121" stroke-opacity="1" stroke-width="0.659722" stroke-linecap="square" stroke-linejoin="round" transform="matrix(0.757288,0,0,0.757348,-78.578,-16.0925)"
font-family="Helvetica" font-size="12" font-weight="400" font-style="normal" 
>
<polyline fill="none" vector-effect="none" points="147,467 147,288 " />
<polyline fill="none" vector-effect="none" points="1023,467 1023,288 " />
<polyline fill="none" vector-effect="none" points="147,467 155.76,467 " />
<polyline fill="none" vector-effect="none" points="1014.24,467 1023,467 " />
<polyline fill="none" vector-effect="none" points="147,431.2 155.76,431.2 " />
<polyline fill="none" vector-effect="none" points="1014.24,431.2 1023,431.2 " />
<polyline fill="none" vector-effect="none" points="147,395.4 155.76,395.4 " />
<polyline fill="none" vector-effect="none" points="1014.24,395.4 1023,395.4 " />
<polyline fill="none" vector-effect="none" points="147,359.6 155.76,359.6 " />
<polyline fill="none" vector-effect="none" points="1014.24,359.6 1023,359.6 " />
<polyline fill="none" vector-effect="none" points="147,323.8 155.76,323.8 " />
<polyline fill="none" vector-effect="none" points="1014.24,323.8 1023,323.8 " />
<polyline fill="none" vector-effect="none" points="147,288 155.76,288 " />
<polyline fill="none" vector-effect="none" points="1014.24,288 1023,288 " />
</g>

<g fill="#212121" fill-opacity="1" stroke="#212121" stroke-opacity="1" stroke-width="1" stroke-linecap="square" stroke-linejoin="bevel" transform="matrix(0.757288,0,0,0.757348,8.89935,340.618)"
font-family="Helvetica" font-size="12" font-weight="400" font-style="normal" 
>
<text fill="#212121" fill-opacity="1" stroke="none" xml:space="preserve" x="0" y="0" font-family="Helvetica" font-size="12" font-weight="400" font-style="normal" 
 >-0.06</text>
</g>

<g fill="#212121" fill-opacity="1" stroke="#212121" stroke-opacity="1" stroke-width="1" stroke-linecap="square" stroke-linejoin="bevel" transform="matrix(0.757288,0,0,0.757348,8.89935,313.505)"
font-family="Helvetica" font-size="12" font-weight="400" font-style="normal" 
>
<text fill="#212121" fill-opacity="1" stroke="none" xml:space="preserve" x="0" y="0" font-family="Helvetica" font-size="12" font-weight="400" font-style="normal" 
 >-0.04</text>
</g>

<g fill="#212121" fill-opacity="1" stroke="#212121" stroke-opacity="1" stroke-width="1" stroke-linecap="square" stroke-linejoin="bevel" transform="matrix(0.757288,0,0,0.757348,8.89935,286.392)"
font-family="Helvetica" font-size="12" font-weight="400" font-style="normal" 
>
<text fill="#212121" fill-opacity="1" stroke="none" xml:space="preserve" x="0" y="0" font-family="Helvetica" font-size="12" font-weight="400" font-style="normal" 
 >-0.02</text>
</g>

<g fill="#212121" fill-opacity="1" stroke="#212121" stroke-opacity="1" stroke-width="1" stroke-linecap="square" stroke-linejoin="bevel" transform="matrix(0.757288,0,0,0.757348,24.0451,259.279)"
font-family="Helvetica" font-size="12" font-weight="400" font-style="normal" 
>
<text fill="#212121" fill-opacity="1" stroke="none" xml:space="preserve" x="0" y="0" font-family="Helvetica" font-size="12" font-weight="400" font-style="normal" 
 >0</text>
</g>

<g fill="#212121" fill-opacity="1" stroke="#212121" stroke-opacity="1" stroke-width="1" stroke-linecap="square" stroke-linejoin="bevel" transform="matrix(0.757288,0,0,0.757348,11.9285,232.166)"
font-family="Helvetica" font-size="12" font-weight="400" font-style="normal" 
>
<text fill="#212121" fill-opacity="1" stroke="none" xml:space="preserve" x="0" y="0" font-family="Helvetica" font-size="12" font-weight="400" font-style="normal" 
 >0.02</text>
</g>

<g fill="#212121" fill-opacity="1" stroke="#212121" stroke-opacity="1" stroke-width="1" stroke-linecap="square" stroke-linejoin="bevel" transform="matrix(0.757288,0,0,0.757348,11.9285,205.053)"
font-family="Helvetica" font-size="12" font-weight="400" font-style="normal" 
>
<text fill="#212121" fill-opacity="1" stroke="none" xml:space="preserve" x="0" y="0" font-family="Helvetica" font-size="12" font-weight="400" font-style="normal" 
 >0.04</text>
</g>

<g fill="none" stroke="#1171be" stroke-opacity="1" stroke-width="0.659722" stroke-linecap="butt" stroke-linejoin="round" transform="matrix(0.757288,0,0,0.757348,-78.578,-16.0925)"
font-family="Helvetica" font-size="12" font-weight="400" font-style="normal" 
>
<polyline fill="none" vector-effect="none" points="179.406,359.74 211.812,350.936 244.218,307.998 276.624,350.041 309.03,321.296 341.436,324.373 373.842,393.501 406.248,433.631 438.654,393.721 471.06,362.7 503.466,360.742 535.872,298.915 568.279,337.3 600.685,325.466 633.091,338.252 665.497,394.414 697.903,420.251 730.309,387.975 762.715,374.024 795.121,370.625 827.527,291.038 859.933,324.409 892.339,328.828 924.745,352.624 957.151,396.166 989.557,406.192 1021.96,381.127 " />
</g>

<g fill="#ffffff" fill-opacity="1" stroke="none" transform="matrix(7.57288e-05,0,0,7.57348e-05,-78.578,-16.0925)"
font-family="Helvetica" font-size="12" font-weight="400" font-style="normal" 
>
<path vector-effect="none" fill-rule="evenodd" d="M9.13e+06,2.98e+06 L9.13e+06,3.14e+06 L1.012e+07,3.14e+06 L1.012e+07,2.98e+06 L9.13e+06,2.98e+06"/>
</g>

<g fill="#1171be" fill-opacity="1" stroke="#1171be" stroke-opacity="1" stroke-width="0.659722" stroke-linecap="butt" stroke-linejoin="round" transform="matrix(0.757288,0,0,0.757348,-78.578,-16.0925)"
font-family="Helvetica" font-size="12" font-weight="400" font-style="normal" 
>
<polyline fill="none" vector-effect="none" points="916.977,306 956.328,306 " />
</g>

<g fill="#212121" fill-opacity="1" stroke="#212121" stroke-opacity="1" stroke-width="1" stroke-linecap="square" stroke-linejoin="bevel" transform="matrix(0.757288,0,0,0.757348,647.897,218.307)"
font-family="Helvetica" font-size="11" font-weight="400" font-style="normal" 
>
<text fill="#212121" fill-opacity="1" stroke="none" xml:space="preserve" x="0" y="0" font-family="Helvetica" font-size="11" font-weight="400" font-style="normal" 
 >Student 2</text>
</g>

<g fill="none" stroke="#212121" stroke-opacity="1" stroke-width="0.659722" stroke-linecap="butt" stroke-linejoin="miter" stroke-miterlimit="2" transform="matrix(0.757288,0,0,0.757348,-78.578,-16.0925)"
font-family="Helvetica" font-size="11" font-weight="400" font-style="normal" 
>
<path vector-effect="none" fill-rule="evenodd" d="M913,314 L913,298 L1012,298 L1012,314 L913,314"/>
</g>

<g fill="#212121" fill-opacity="1" stroke="#212121" stroke-opacity="1" stroke-width="1" stroke-linecap="square" stroke-linejoin="bevel" transform="matrix(0.757288,0,0,0.757348,340.96,363.791)"
font-family="Helvetica" font-size="14" font-weight="400" font-style="normal" 
>
<text fill="#212121" fill-opacity="1" stroke="none" xml:space="preserve" x="0" y="0" font-family="Helvetica" font-size="14" font-weight="400" font-style="normal" 
 >Time (ms)</text>
</g>

<g fill="#212121" fill-opacity="1" stroke="#212121" stroke-opacity="1" stroke-width="1" stroke-linecap="square" stroke-linejoin="bevel" transform="matrix(0,-0.757348,0.757288,0,9.08867,198.994)"
font-family="Helvetica" font-size="14" font-weight="400" font-style="normal" 
>
<text fill="#212121" fill-opacity="1" stroke="none" xml:space="preserve" x="0" y="0" font-family="Helvetica" font-size="14" font-weight="400" font-style="normal" 
 >Amplitude</text>
</g>

<g fill="#212121" fill-opacity="1" stroke="#212121" stroke-opacity="1" stroke-width="1" stroke-linecap="square" stroke-linejoin="bevel" transform="matrix(0.757288,0,0,0.757348,284.542,9.08927)"
font-family="Helvetica" font-size="14" font-weight="700" font-style="normal" 
>
<text fill="#212121" fill-opacity="1" stroke="none" xml:space="preserve" x="0" y="0" font-family="Helvetica" font-size="14" font-weight="700" font-style="normal" 
 >Filtered Signal Time Domain (C)</text>
</g>
</g>
</svg>
