<?xml version="1.0" encoding="UTF-8" standalone="no"?>
<svg width="248.708mm" height="129.822mm"
 viewBox="0 0 705 368"
 xmlns="http://www.w3.org/2000/svg" xmlns:xlink="http://www.w3.org/1999/xlink"  version="1.2" baseProfile="tiny">
<title>Qt SVG Document</title>
<desc>MATLAB, The MathWorks, Inc. Version 25.1.0.2973910 R2025a Update 1</desc>
<defs>
</defs>
<g fill="none" stroke="black" stroke-width="1" fill-rule="evenodd" stroke-linecap="square" stroke-linejoin="bevel" >

<g fill="#ffffff" fill-opacity="1" stroke="none" transform="matrix(0.7574,0,0,0.757348,-78.5898,-16.0925)"
font-family="Sans Serif" font-size="9" font-weight="400" font-style="normal" 
>
<path vector-effect="none" fill-rule="evenodd" d="M102,20 L1034,20 L1034,507 L102,507 L102,20"/>
</g>

<g fill="#ffffff" fill-opacity="1" stroke="none" transform="matrix(7.574e-05,0,0,7.57348e-05,-78.5898,-16.0925)"
font-family="Sans Serif" font-size="9" font-weight="400" font-style="normal" 
>
<path vector-effect="none" fill-rule="evenodd" d="M1.47e+06,390000 L1.47e+06,2.18e+06 L1.024e+07,2.18e+06 L1.024e+07,390000 L1.47e+06,390000"/>
</g>

<g fill="#212121" fill-opacity="1" stroke="#212121" stroke-opacity="1" stroke-width="0.659722" stroke-linecap="square" stroke-linejoin="round" transform="matrix(0.7574,0,0,0.757348,-78.5898,-16.0925)"
font-family="Sans Serif" font-size="9" font-weight="400" font-style="normal" 
>
<polyline fill="none" vector-effect="none" points="147,218 1024,218 " />
<polyline fill="none" vector-effect="none" points="147,39 1024,39 " />
<polyline fill="none" vector-effect="none" points="230.569,218 230.569,209.23 " />
<polyline fill="none" vector-effect="none" points="230.569,47.77 230.569,39 " />
<polyline fill="none" vector-effect="none" points="318.268,218 318.268,209.23 " />
<polyline fill="none" vector-effect="none" points="318.268,47.77 318.268,39 " />
<polyline fill="none" vector-effect="none" points="405.969,218 405.969,209.23 " />
<polyline fill="none" vector-effect="none" points="405.969,47.77 405.969,39 " />
<polyline fill="none" vector-effect="none" points="493.669,218 493.669,209.23 " />
<polyline fill="none" vector-effect="none" points="493.669,47.77 493.669,39 " />
<polyline fill="none" vector-effect="none" points="581.369,218 581.369,209.23 " />
<polyline fill="none" vector-effect="none" points="581.369,47.77 581.369,39 " />
<polyline fill="none" vector-effect="none" points="669.068,218 669.068,209.23 " />
<polyline fill="none" vector-effect="none" points="669.068,47.77 669.068,39 " />
<polyline fill="none" vector-effect="none" points="756.768,218 756.768,209.23 " />
<polyline fill="none" vector-effect="none" points="756.768,47.77 756.768,39 " />
<polyline fill="none" vector-effect="none" points="844.469,218 844.469,209.23 " />
<polyline fill="none" vector-effect="none" points="844.469,47.77 844.469,39 " />
<polyline fill="none" vector-effect="none" points="932.169,218 932.169,209.23 " />
<polyline fill="none" vector-effect="none" points="932.169,47.77 932.169,39 " />
<polyline fill="none" vector-effect="none" points="1019.87,218 1019.87,209.23 " />
<polyline fill="none" vector-effect="none" points="1019.87,47.77 1019.87,39 " />
</g>

<g fill="#212121" fill-opacity="1" stroke="#212121" stroke-opacity="1" stroke-width="1" stroke-linecap="square" stroke-linejoin="bevel" transform="matrix(0.7574,0,0,0.757348,88.4688,160.738)"
font-family="Helvetica" font-size="12" font-weight="400" font-style="normal" 
>
<text fill="#212121" fill-opacity="1" stroke="none" xml:space="preserve" x="0" y="0" font-family="Helvetica" font-size="12" font-weight="400" font-style="normal" 
 >550</text>
</g>

<g fill="#212121" fill-opacity="1" stroke="#212121" stroke-opacity="1" stroke-width="1" stroke-linecap="square" stroke-linejoin="bevel" transform="matrix(0.7574,0,0,0.757348,154.893,160.738)"
font-family="Helvetica" font-size="12" font-weight="400" font-style="normal" 
>
<text fill="#212121" fill-opacity="1" stroke="none" xml:space="preserve" x="0" y="0" font-family="Helvetica" font-size="12" font-weight="400" font-style="normal" 
 >600</text>
</g>

<g fill="#212121" fill-opacity="1" stroke="#212121" stroke-opacity="1" stroke-width="1" stroke-linecap="square" stroke-linejoin="bevel" transform="matrix(0.7574,0,0,0.757348,221.317,160.738)"
font-family="Helvetica" font-size="12" font-weight="400" font-style="normal" 
>
<text fill="#212121" fill-opacity="1" stroke="none" xml:space="preserve" x="0" y="0" font-family="Helvetica" font-size="12" font-weight="400" font-style="normal" 
 >650</text>
</g>

<g fill="#212121" fill-opacity="1" stroke="#212121" stroke-opacity="1" stroke-width="1" stroke-linecap="square" stroke-linejoin="bevel" transform="matrix(0.7574,0,0,0.757348,287.741,160.738)"
font-family="Helvetica" font-size="12" font-weight="400" font-style="normal" 
>
<text fill="#212121" fill-opacity="1" stroke="none" xml:space="preserve" x="0" y="0" font-family="Helvetica" font-size="12" font-weight="400" font-style="normal" 
 >700</text>
</g>

<g fill="#212121" fill-opacity="1" stroke="#212121" stroke-opacity="1" stroke-width="1" stroke-linecap="square" stroke-linejoin="bevel" transform="matrix(0.7574,0,0,0.757348,354.165,160.738)"
font-family="Helvetica" font-size="12" font-weight="400" font-style="normal" 
>
<text fill="#212121" fill-opacity="1" stroke="none" xml:space="preserve" x="0" y="0" font-family="Helvetica" font-size="12" font-weight="400" font-style="normal" 
 >750</text>
</g>

<g fill="#212121" fill-opacity="1" stroke="#212121" stroke-opacity="1" stroke-width="1" stroke-linecap="square" stroke-linejoin="bevel" transform="matrix(0.7574,0,0,0.757348,420.589,160.738)"
font-family="Helvetica" font-size="12" font-weight="400" font-style="normal" 
>
<text fill="#212121" fill-opacity="1" stroke="none" xml:space="preserve" x="0" y="0" font-family="Helvetica" font-size="12" font-weight="400" font-style="normal" 
 >800</text>
</g>

<g fill="#212121" fill-opacity="1" stroke="#212121" stroke-opacity="1" stroke-width="1" stroke-linecap="square" stroke-linejoin="bevel" transform="matrix(0.7574,0,0,0.757348,487.013,160.738)"
font-family="Helvetica" font-size="12" font-weight="400" font-style="normal" 
>
<text fill="#212121" fill-opacity="1" stroke="none" xml:space="preserve" x="0" y="0" font-family="Helvetica" font-size="12" font-weight="400" font-style="normal" 
 >850</text>
</g>

<g fill="#212121" fill-opacity="1" stroke="#212121" stroke-opacity="1" stroke-width="1" stroke-linecap="square" stroke-linejoin="bevel" transform="matrix(0.7574,0,0,0.757348,553.437,160.738)"
font-family="Helvetica" font-size="12" font-weight="400" font-style="normal" 
>
<text fill="#212121" fill-opacity="1" stroke="none" xml:space="preserve" x="0" y="0" font-family="Helvetica" font-size="12" font-weight="400" font-style="normal" 
 >900</text>
</g>

<g fill="#212121" fill-opacity="1" stroke="#212121" stroke-opacity="1" stroke-width="1" stroke-linecap="square" stroke-linejoin="bevel" transform="matrix(0.7574,0,0,0.757348,619.861,160.738)"
font-family="Helvetica" font-size="12" font-weight="400" font-style="normal" 
>
<text fill="#212121" fill-opacity="1" stroke="none" xml:space="preserve" x="0" y="0" font-family="Helvetica" font-size="12" font-weight="400" font-style="normal" 
 >950</text>
</g>

<g fill="#212121" fill-opacity="1" stroke="#212121" stroke-opacity="1" stroke-width="1" stroke-linecap="square" stroke-linejoin="bevel" transform="matrix(0.7574,0,0,0.757348,683.634,160.738)"
font-family="Helvetica" font-size="12" font-weight="400" font-style="normal" 
>
<text fill="#212121" fill-opacity="1" stroke="none" xml:space="preserve" x="0" y="0" font-family="Helvetica" font-size="12" font-weight="400" font-style="normal" 
 >1000</text>
</g>

<g fill="#212121" fill-opacity="1" stroke="#212121" stroke-opacity="1" stroke-width="0.659722" stroke-linecap="square" stroke-linejoin="round" transform="matrix(0.7574,0,0,0.757348,-78.5898,-16.0925)"
font-family="Helvetica" font-size="12" font-weight="400" font-style="normal" 
>
<polyline fill="none" vector-effect="none" points="147,218 147,39 " />
<polyline fill="none" vector-effect="none" points="1024,218 1024,39 " />
<polyline fill="none" vector-effect="none" points="147,218 155.77,218 " />
<polyline fill="none" vector-effect="none" points="1015.23,218 1024,218 " />
<polyline fill="none" vector-effect="none" points="147,192.626 155.77,192.626 " />
<polyline fill="none" vector-effect="none" points="1015.23,192.626 1024,192.626 " />
<polyline fill="none" vector-effect="none" points="147,167.252 155.77,167.252 " />
<polyline fill="none" vector-effect="none" points="1015.23,167.252 1024,167.252 " />
<polyline fill="none" vector-effect="none" points="147,141.878 155.77,141.878 " />
<polyline fill="none" vector-effect="none" points="1015.23,141.878 1024,141.878 " />
<polyline fill="none" vector-effect="none" points="147,116.504 155.77,116.504 " />
<polyline fill="none" vector-effect="none" points="1015.23,116.504 1024,116.504 " />
<polyline fill="none" vector-effect="none" points="147,91.1306 155.77,91.1306 " />
<polyline fill="none" vector-effect="none" points="1015.23,91.1306 1024,91.1306 " />
<polyline fill="none" vector-effect="none" points="147,65.7567 155.77,65.7567 " />
<polyline fill="none" vector-effect="none" points="1015.23,65.7567 1024,65.7567 " />
<polyline fill="none" vector-effect="none" points="147,40.3828 155.77,40.3828 " />
<polyline fill="none" vector-effect="none" points="1015.23,40.3828 1024,40.3828 " />
</g>

<g fill="#212121" fill-opacity="1" stroke="#212121" stroke-opacity="1" stroke-width="1" stroke-linecap="square" stroke-linejoin="bevel" transform="matrix(0.7574,0,0,0.757348,24.0484,152.039)"
font-family="Helvetica" font-size="12" font-weight="400" font-style="normal" 
>
<text fill="#212121" fill-opacity="1" stroke="none" xml:space="preserve" x="0" y="0" font-family="Helvetica" font-size="12" font-weight="400" font-style="normal" 
 >0</text>
</g>

<g fill="#212121" fill-opacity="1" stroke="#212121" stroke-opacity="1" stroke-width="1" stroke-linecap="square" stroke-linejoin="bevel" transform="matrix(0.7574,0,0,0.757348,19.504,132.822)"
font-family="Helvetica" font-size="12" font-weight="400" font-style="normal" 
>
<text fill="#212121" fill-opacity="1" stroke="none" xml:space="preserve" x="0" y="0" font-family="Helvetica" font-size="12" font-weight="400" font-style="normal" 
 >10</text>
</g>

<g fill="#212121" fill-opacity="1" stroke="#212121" stroke-opacity="1" stroke-width="1" stroke-linecap="square" stroke-linejoin="bevel" transform="matrix(0.7574,0,0,0.757348,19.504,113.605)"
font-family="Helvetica" font-size="12" font-weight="400" font-style="normal" 
>
<text fill="#212121" fill-opacity="1" stroke="none" xml:space="preserve" x="0" y="0" font-family="Helvetica" font-size="12" font-weight="400" font-style="normal" 
 >20</text>
</g>

<g fill="#212121" fill-opacity="1" stroke="#212121" stroke-opacity="1" stroke-width="1" stroke-linecap="square" stroke-linejoin="bevel" transform="matrix(0.7574,0,0,0.757348,19.504,94.3881)"
font-family="Helvetica" font-size="12" font-weight="400" font-style="normal" 
>
<text fill="#212121" fill-opacity="1" stroke="none" xml:space="preserve" x="0" y="0" font-family="Helvetica" font-size="12" font-weight="400" font-style="normal" 
 >30</text>
</g>

<g fill="#212121" fill-opacity="1" stroke="#212121" stroke-opacity="1" stroke-width="1" stroke-linecap="square" stroke-linejoin="bevel" transform="matrix(0.7574,0,0,0.757348,19.504,75.1713)"
font-family="Helvetica" font-size="12" font-weight="400" font-style="normal" 
>
<text fill="#212121" fill-opacity="1" stroke="none" xml:space="preserve" x="0" y="0" font-family="Helvetica" font-size="12" font-weight="400" font-style="normal" 
 >40</text>
</g>

<g fill="#212121" fill-opacity="1" stroke="#212121" stroke-opacity="1" stroke-width="1" stroke-linecap="square" stroke-linejoin="bevel" transform="matrix(0.7574,0,0,0.757348,19.504,55.9544)"
font-family="Helvetica" font-size="12" font-weight="400" font-style="normal" 
>
<text fill="#212121" fill-opacity="1" stroke="none" xml:space="preserve" x="0" y="0" font-family="Helvetica" font-size="12" font-weight="400" font-style="normal" 
 >50</text>
</g>

<g fill="#212121" fill-opacity="1" stroke="#212121" stroke-opacity="1" stroke-width="1" stroke-linecap="square" stroke-linejoin="bevel" transform="matrix(0.7574,0,0,0.757348,19.504,36.7375)"
font-family="Helvetica" font-size="12" font-weight="400" font-style="normal" 
>
<text fill="#212121" fill-opacity="1" stroke="none" xml:space="preserve" x="0" y="0" font-family="Helvetica" font-size="12" font-weight="400" font-style="normal" 
 >60</text>
</g>

<g fill="#212121" fill-opacity="1" stroke="#212121" stroke-opacity="1" stroke-width="1" stroke-linecap="square" stroke-linejoin="bevel" transform="matrix(0.7574,0,0,0.757348,19.504,17.5207)"
font-family="Helvetica" font-size="12" font-weight="400" font-style="normal" 
>
<text fill="#212121" fill-opacity="1" stroke="none" xml:space="preserve" x="0" y="0" font-family="Helvetica" font-size="12" font-weight="400" font-style="normal" 
 >70</text>
</g>

<g fill="none" stroke="#1171be" stroke-opacity="1" stroke-width="0.659722" stroke-linecap="butt" stroke-linejoin="round" transform="matrix(0.7574,0,0,0.757348,-78.5898,-16.0925)"
font-family="Helvetica" font-size="12" font-weight="400" font-style="normal" 
>
<polyline fill="none" vector-effect="none" points="147,163.027 157.199,155.67 168.774,151.951 180.35,151.591 191.926,154.641 203.501,162.572 215.077,182.902 226.653,189.39 238.229,162.883 249.804,152.604 261.38,147.709 272.956,146.325 284.531,148.223 296.107,154.388 307.683,169.428 319.259,204.556 330.834,160.866 342.41,148.059 353.986,141.742 365.561,139.17 377.137,139.804 388.713,144.25 400.289,155.528 411.864,207.048 423.44,156.801 435.016,140.332 446.591,132.04 458.167,127.769 469.743,126.603 481.319,128.801 492.894,136.362 504.47,162.029 516.046,145.578 527.621,122.083 539.197,108.924 550.773,98.8935 562.349,89.1954 573.924,74.5226 585.5,55.2727 597.076,113.052 608.651,136.319 620.227,117.414 631.803,113.572 643.379,113.986 654.954,117.143 666.53,123.027 678.106,132.723 689.681,150.693 701.257,194.727 712.833,149.728 724.409,139.487 735.984,135.818 747.56,135.862 759.136,139.066 770.711,146.015 782.287,159.599 793.863,208.043 805.439,167.599 817.014,153.42 828.59,147.788 840.166,146.346 851.741,148.162 863.317,153.504 874.893,164.335 886.469,192.427 898.044,183.301 909.62,164.027 921.196,156.572 932.771,153.904 944.347,154.62 955.923,158.703 967.499,167.494 979.074,187.587 990.65,201.286 1002.23,173.333 1013.8,163.835 1024,160.429 " />
</g>

<g fill="#ffffff" fill-opacity="1" stroke="none" transform="matrix(7.574e-05,0,0,7.57348e-05,-78.5898,-16.0925)"
font-family="Helvetica" font-size="12" font-weight="400" font-style="normal" 
>
<path vector-effect="none" fill-rule="evenodd" d="M9.14e+06,490000 L9.14e+06,650000 L1.013e+07,650000 L1.013e+07,490000 L9.14e+06,490000"/>
</g>

<g fill="#1171be" fill-opacity="1" stroke="#1171be" stroke-opacity="1" stroke-width="0.659722" stroke-linecap="butt" stroke-linejoin="round" transform="matrix(0.7574,0,0,0.757348,-78.5898,-16.0925)"
font-family="Helvetica" font-size="12" font-weight="400" font-style="normal" 
>
<polyline fill="none" vector-effect="none" points="917.977,57 957.328,57 " />
</g>

<g fill="#212121" fill-opacity="1" stroke="#212121" stroke-opacity="1" stroke-width="1" stroke-linecap="square" stroke-linejoin="bevel" transform="matrix(0.7574,0,0,0.757348,648.75,29.727)"
font-family="Helvetica" font-size="11" font-weight="400" font-style="normal" 
>
<text fill="#212121" fill-opacity="1" stroke="none" xml:space="preserve" x="0" y="0" font-family="Helvetica" font-size="11" font-weight="400" font-style="normal" 
 >Student 1</text>
</g>

<g fill="none" stroke="#212121" stroke-opacity="1" stroke-width="0.659722" stroke-linecap="butt" stroke-linejoin="miter" stroke-miterlimit="2" transform="matrix(0.7574,0,0,0.757348,-78.5898,-16.0925)"
font-family="Helvetica" font-size="11" font-weight="400" font-style="normal" 
>
<path vector-effect="none" fill-rule="evenodd" d="M914,65 L914,49 L1013,49 L1013,65 L914,65"/>
</g>

<g fill="#ffffff" fill-opacity="1" stroke="none" transform="matrix(7.574e-05,0,0,7.57348e-05,-78.5898,-16.0925)"
font-family="Helvetica" font-size="11" font-weight="400" font-style="normal" 
>
<path vector-effect="none" fill-rule="evenodd" d="M1.47e+06,2.88e+06 L1.47e+06,4.67e+06 L1.024e+07,4.67e+06 L1.024e+07,2.88e+06 L1.47e+06,2.88e+06"/>
</g>

<g fill="#212121" fill-opacity="1" stroke="#212121" stroke-opacity="1" stroke-width="0.659722" stroke-linecap="square" stroke-linejoin="round" transform="matrix(0.7574,0,0,0.757348,-78.5898,-16.0925)"
font-family="Helvetica" font-size="11" font-weight="400" font-style="normal" 
>
<polyline fill="none" vector-effect="none" points="147,467 1024,467 " />
<polyline fill="none" vector-effect="none" points="147,288 1024,288 " />
<polyline fill="none" vector-effect="none" points="226.437,467 226.437,458.23 " />
<polyline fill="none" vector-effect="none" points="226.437,296.77 226.437,288 " />
<polyline fill="none" vector-effect="none" points="314.137,467 314.137,458.23 " />
<polyline fill="none" vector-effect="none" points="314.137,296.77 314.137,288 " />
<polyline fill="none" vector-effect="none" points="401.837,467 401.837,458.23 " />
<polyline fill="none" vector-effect="none" points="401.837,296.77 401.837,288 " />
<polyline fill="none" vector-effect="none" points="489.537,467 489.537,458.23 " />
<polyline fill="none" vector-effect="none" points="489.537,296.77 489.537,288 " />
<polyline fill="none" vector-effect="none" points="577.237,467 577.237,458.23 " />
<polyline fill="none" vector-effect="none" points="577.237,296.77 577.237,288 " />
<polyline fill="none" vector-effect="none" points="664.937,467 664.937,458.23 " />
<polyline fill="none" vector-effect="none" points="664.937,296.77 664.937,288 " />
<polyline fill="none" vector-effect="none" points="752.637,467 752.637,458.23 " />
<polyline fill="none" vector-effect="none" points="752.637,296.77 752.637,288 " />
<polyline fill="none" vector-effect="none" points="840.337,467 840.337,458.23 " />
<polyline fill="none" vector-effect="none" points="840.337,296.77 840.337,288 " />
<polyline fill="none" vector-effect="none" points="928.037,467 928.037,458.23 " />
<polyline fill="none" vector-effect="none" points="928.037,296.77 928.037,288 " />
<polyline fill="none" vector-effect="none" points="1015.74,467 1015.74,458.23 " />
<polyline fill="none" vector-effect="none" points="1015.74,296.77 1015.74,288 " />
</g>

<g fill="#212121" fill-opacity="1" stroke="#212121" stroke-opacity="1" stroke-width="1" stroke-linecap="square" stroke-linejoin="bevel" transform="matrix(0.7574,0,0,0.757348,82.6887,349.317)"
font-family="Helvetica" font-size="12" font-weight="400" font-style="normal" 
>
<text fill="#212121" fill-opacity="1" stroke="none" xml:space="preserve" x="0" y="0" font-family="Helvetica" font-size="12" font-weight="400" font-style="normal" 
 >1300</text>
</g>

<g fill="#212121" fill-opacity="1" stroke="#212121" stroke-opacity="1" stroke-width="1" stroke-linecap="square" stroke-linejoin="bevel" transform="matrix(0.7574,0,0,0.757348,149.113,349.317)"
font-family="Helvetica" font-size="12" font-weight="400" font-style="normal" 
>
<text fill="#212121" fill-opacity="1" stroke="none" xml:space="preserve" x="0" y="0" font-family="Helvetica" font-size="12" font-weight="400" font-style="normal" 
 >1350</text>
</g>

<g fill="#212121" fill-opacity="1" stroke="#212121" stroke-opacity="1" stroke-width="1" stroke-linecap="square" stroke-linejoin="bevel" transform="matrix(0.7574,0,0,0.757348,215.537,349.317)"
font-family="Helvetica" font-size="12" font-weight="400" font-style="normal" 
>
<text fill="#212121" fill-opacity="1" stroke="none" xml:space="preserve" x="0" y="0" font-family="Helvetica" font-size="12" font-weight="400" font-style="normal" 
 >1400</text>
</g>

<g fill="#212121" fill-opacity="1" stroke="#212121" stroke-opacity="1" stroke-width="1" stroke-linecap="square" stroke-linejoin="bevel" transform="matrix(0.7574,0,0,0.757348,281.961,349.317)"
font-family="Helvetica" font-size="12" font-weight="400" font-style="normal" 
>
<text fill="#212121" fill-opacity="1" stroke="none" xml:space="preserve" x="0" y="0" font-family="Helvetica" font-size="12" font-weight="400" font-style="normal" 
 >1450</text>
</g>

<g fill="#212121" fill-opacity="1" stroke="#212121" stroke-opacity="1" stroke-width="1" stroke-linecap="square" stroke-linejoin="bevel" transform="matrix(0.7574,0,0,0.757348,348.385,349.317)"
font-family="Helvetica" font-size="12" font-weight="400" font-style="normal" 
>
<text fill="#212121" fill-opacity="1" stroke="none" xml:space="preserve" x="0" y="0" font-family="Helvetica" font-size="12" font-weight="400" font-style="normal" 
 >1500</text>
</g>

<g fill="#212121" fill-opacity="1" stroke="#212121" stroke-opacity="1" stroke-width="1" stroke-linecap="square" stroke-linejoin="bevel" transform="matrix(0.7574,0,0,0.757348,414.809,349.317)"
font-family="Helvetica" font-size="12" font-weight="400" font-style="normal" 
>
<text fill="#212121" fill-opacity="1" stroke="none" xml:space="preserve" x="0" y="0" font-family="Helvetica" font-size="12" font-weight="400" font-style="normal" 
 >1550</text>
</g>

<g fill="#212121" fill-opacity="1" stroke="#212121" stroke-opacity="1" stroke-width="1" stroke-linecap="square" stroke-linejoin="bevel" transform="matrix(0.7574,0,0,0.757348,481.233,349.317)"
font-family="Helvetica" font-size="12" font-weight="400" font-style="normal" 
>
<text fill="#212121" fill-opacity="1" stroke="none" xml:space="preserve" x="0" y="0" font-family="Helvetica" font-size="12" font-weight="400" font-style="normal" 
 >1600</text>
</g>

<g fill="#212121" fill-opacity="1" stroke="#212121" stroke-opacity="1" stroke-width="1" stroke-linecap="square" stroke-linejoin="bevel" transform="matrix(0.7574,0,0,0.757348,547.657,349.317)"
font-family="Helvetica" font-size="12" font-weight="400" font-style="normal" 
>
<text fill="#212121" fill-opacity="1" stroke="none" xml:space="preserve" x="0" y="0" font-family="Helvetica" font-size="12" font-weight="400" font-style="normal" 
 >1650</text>
</g>

<g fill="#212121" fill-opacity="1" stroke="#212121" stroke-opacity="1" stroke-width="1" stroke-linecap="square" stroke-linejoin="bevel" transform="matrix(0.7574,0,0,0.757348,614.081,349.317)"
font-family="Helvetica" font-size="12" font-weight="400" font-style="normal" 
>
<text fill="#212121" fill-opacity="1" stroke="none" xml:space="preserve" x="0" y="0" font-family="Helvetica" font-size="12" font-weight="400" font-style="normal" 
 >1700</text>
</g>

<g fill="#212121" fill-opacity="1" stroke="#212121" stroke-opacity="1" stroke-width="1" stroke-linecap="square" stroke-linejoin="bevel" transform="matrix(0.7574,0,0,0.757348,680.505,349.317)"
font-family="Helvetica" font-size="12" font-weight="400" font-style="normal" 
>
<text fill="#212121" fill-opacity="1" stroke="none" xml:space="preserve" x="0" y="0" font-family="Helvetica" font-size="12" font-weight="400" font-style="normal" 
 >1750</text>
</g>

<g fill="#212121" fill-opacity="1" stroke="#212121" stroke-opacity="1" stroke-width="0.659722" stroke-linecap="square" stroke-linejoin="round" transform="matrix(0.7574,0,0,0.757348,-78.5898,-16.0925)"
font-family="Helvetica" font-size="12" font-weight="400" font-style="normal" 
>
<polyline fill="none" vector-effect="none" points="147,467 147,288 " />
<polyline fill="none" vector-effect="none" points="1024,467 1024,288 " />
<polyline fill="none" vector-effect="none" points="147,467 155.77,467 " />
<polyline fill="none" vector-effect="none" points="1015.23,467 1024,467 " />
<polyline fill="none" vector-effect="none" points="147,439.964 155.77,439.964 " />
<polyline fill="none" vector-effect="none" points="1015.23,439.964 1024,439.964 " />
<polyline fill="none" vector-effect="none" points="147,412.927 155.77,412.927 " />
<polyline fill="none" vector-effect="none" points="1015.23,412.927 1024,412.927 " />
<polyline fill="none" vector-effect="none" points="147,385.891 155.77,385.891 " />
<polyline fill="none" vector-effect="none" points="1015.23,385.891 1024,385.891 " />
<polyline fill="none" vector-effect="none" points="147,358.855 155.77,358.855 " />
<polyline fill="none" vector-effect="none" points="1015.23,358.855 1024,358.855 " />
<polyline fill="none" vector-effect="none" points="147,331.819 155.77,331.819 " />
<polyline fill="none" vector-effect="none" points="1015.23,331.819 1024,331.819 " />
<polyline fill="none" vector-effect="none" points="147,304.782 155.77,304.782 " />
<polyline fill="none" vector-effect="none" points="1015.23,304.782 1024,304.782 " />
</g>

<g fill="#212121" fill-opacity="1" stroke="#212121" stroke-opacity="1" stroke-width="1" stroke-linecap="square" stroke-linejoin="bevel" transform="matrix(0.7574,0,0,0.757348,16.4745,340.618)"
font-family="Helvetica" font-size="12" font-weight="400" font-style="normal" 
>
<text fill="#212121" fill-opacity="1" stroke="none" xml:space="preserve" x="0" y="0" font-family="Helvetica" font-size="12" font-weight="400" font-style="normal" 
 >-10</text>
</g>

<g fill="#212121" fill-opacity="1" stroke="#212121" stroke-opacity="1" stroke-width="1" stroke-linecap="square" stroke-linejoin="bevel" transform="matrix(0.7574,0,0,0.757348,24.0485,320.142)"
font-family="Helvetica" font-size="12" font-weight="400" font-style="normal" 
>
<text fill="#212121" fill-opacity="1" stroke="none" xml:space="preserve" x="0" y="0" font-family="Helvetica" font-size="12" font-weight="400" font-style="normal" 
 >0</text>
</g>

<g fill="#212121" fill-opacity="1" stroke="#212121" stroke-opacity="1" stroke-width="1" stroke-linecap="square" stroke-linejoin="bevel" transform="matrix(0.7574,0,0,0.757348,19.5041,299.667)"
font-family="Helvetica" font-size="12" font-weight="400" font-style="normal" 
>
<text fill="#212121" fill-opacity="1" stroke="none" xml:space="preserve" x="0" y="0" font-family="Helvetica" font-size="12" font-weight="400" font-style="normal" 
 >10</text>
</g>

<g fill="#212121" fill-opacity="1" stroke="#212121" stroke-opacity="1" stroke-width="1" stroke-linecap="square" stroke-linejoin="bevel" transform="matrix(0.7574,0,0,0.757348,19.5041,279.191)"
font-family="Helvetica" font-size="12" font-weight="400" font-style="normal" 
>
<text fill="#212121" fill-opacity="1" stroke="none" xml:space="preserve" x="0" y="0" font-family="Helvetica" font-size="12" font-weight="400" font-style="normal" 
 >20</text>
</g>

<g fill="#212121" fill-opacity="1" stroke="#212121" stroke-opacity="1" stroke-width="1" stroke-linecap="square" stroke-linejoin="bevel" transform="matrix(0.7574,0,0,0.757348,19.5041,258.715)"
font-family="Helvetica" font-size="12" font-weight="400" font-style="normal" 
>
<text fill="#212121" fill-opacity="1" stroke="none" xml:space="preserve" x="0" y="0" font-family="Helvetica" font-size="12" font-weight="400" font-style="normal" 
 >30</text>
</g>

<g fill="#212121" fill-opacity="1" stroke="#212121" stroke-opacity="1" stroke-width="1" stroke-linecap="square" stroke-linejoin="bevel" transform="matrix(0.7574,0,0,0.757348,19.5041,238.239)"
font-family="Helvetica" font-size="12" font-weight="400" font-style="normal" 
>
<text fill="#212121" fill-opacity="1" stroke="none" xml:space="preserve" x="0" y="0" font-family="Helvetica" font-size="12" font-weight="400" font-style="normal" 
 >40</text>
</g>

<g fill="#212121" fill-opacity="1" stroke="#212121" stroke-opacity="1" stroke-width="1" stroke-linecap="square" stroke-linejoin="bevel" transform="matrix(0.7574,0,0,0.757348,19.5041,217.763)"
font-family="Helvetica" font-size="12" font-weight="400" font-style="normal" 
>
<text fill="#212121" fill-opacity="1" stroke="none" xml:space="preserve" x="0" y="0" font-family="Helvetica" font-size="12" font-weight="400" font-style="normal" 
 >50</text>
</g>

<g fill="none" stroke="#1171be" stroke-opacity="1" stroke-width="0.659722" stroke-linecap="butt" stroke-linejoin="round" transform="matrix(0.7574,0,0,0.757348,-78.5898,-16.0925)"
font-family="Helvetica" font-size="12" font-weight="400" font-style="normal" 
>
<polyline fill="none" vector-effect="none" points="148.915,467 157.199,420.236 168.774,406.311 180.35,399.93 191.926,397.698 203.501,398.916 215.077,404.104 226.653,416.044 238.229,457.558 249.804,423.934 261.38,405.998 272.956,397.864 284.531,394.328 296.107,394.279 307.683,397.918 319.259,407.142 330.834,432.626 342.41,427.206 353.986,403.045 365.561,392.701 377.137,387.592 388.713,386.062 400.289,388.008 411.864,394.712 423.44,412.364 435.016,431.368 446.591,395.327 458.167,381.844 469.743,374.438 481.319,370.655 492.894,370.032 504.47,373.319 516.046,384.336 527.621,458.942 539.197,372.254 550.773,350.274 562.349,332.181 573.924,305.789 585.5,301.815 597.076,334.719 608.651,358.909 620.227,405.698 631.803,382.89 643.379,369.472 654.954,365.47 666.53,365.61 678.106,368.868 689.681,375.509 701.257,387.412 712.833,414.527 724.409,414.771 735.984,392.216 747.56,384.155 759.136,381.402 770.711,382.242 782.287,386.557 793.863,395.587 805.439,415.181 817.014,440.623 828.59,405.146 840.166,394.273 851.741,389.809 863.317,389.231 874.893,392.105 886.469,399.224 898.044,414.35 " />
<polyline fill="none" vector-effect="none" points="921.196,415.43 932.771,401.389 944.347,395.362 955.923,393.594 967.499,395.294 979.074,400.903 990.65,412.949 1002.23,449.631 1013.8,425.434 1024,409.308 " />
</g>

<g fill="#ffffff" fill-opacity="1" stroke="none" transform="matrix(7.574e-05,0,0,7.57348e-05,-78.5898,-16.0925)"
font-family="Helvetica" font-size="12" font-weight="400" font-style="normal" 
>
<path vector-effect="none" fill-rule="evenodd" d="M9.14e+06,2.98e+06 L9.14e+06,3.14e+06 L1.013e+07,3.14e+06 L1.013e+07,2.98e+06 L9.14e+06,2.98e+06"/>
</g>

<g fill="#1171be" fill-opacity="1" stroke="#1171be" stroke-opacity="1" stroke-width="0.659722" stroke-linecap="butt" stroke-linejoin="round" transform="matrix(0.7574,0,0,0.757348,-78.5898,-16.0925)"
font-family="Helvetica" font-size="12" font-weight="400" font-style="normal" 
>
<polyline fill="none" vector-effect="none" points="917.977,306 957.328,306 " />
</g>

<g fill="#212121" fill-opacity="1" stroke="#212121" stroke-opacity="1" stroke-width="1" stroke-linecap="square" stroke-linejoin="bevel" transform="matrix(0.7574,0,0,0.757348,648.75,218.307)"
font-family="Helvetica" font-size="11" font-weight="400" font-style="normal" 
>
<text fill="#212121" fill-opacity="1" stroke="none" xml:space="preserve" x="0" y="0" font-family="Helvetica" font-size="11" font-weight="400" font-style="normal" 
 >Student 2</text>
</g>

<g fill="none" stroke="#212121" stroke-opacity="1" stroke-width="0.659722" stroke-linecap="butt" stroke-linejoin="miter" stroke-miterlimit="2" transform="matrix(0.7574,0,0,0.757348,-78.5898,-16.0925)"
font-family="Helvetica" font-size="11" font-weight="400" font-style="normal" 
>
<path vector-effect="none" fill-rule="evenodd" d="M914,314 L914,298 L1013,298 L1013,314 L914,314"/>
</g>

<g fill="#212121" fill-opacity="1" stroke="#212121" stroke-opacity="1" stroke-width="1" stroke-linecap="square" stroke-linejoin="bevel" transform="matrix(0.7574,0,0,0.757348,328.513,363.791)"
font-family="Helvetica" font-size="14" font-weight="400" font-style="normal" 
>
<text fill="#212121" fill-opacity="1" stroke="none" xml:space="preserve" x="0" y="0" font-family="Helvetica" font-size="14" font-weight="400" font-style="normal" 
 >Frequency (Hz)</text>
</g>

<g fill="#212121" fill-opacity="1" stroke="#212121" stroke-opacity="1" stroke-width="1" stroke-linecap="square" stroke-linejoin="bevel" transform="matrix(0,-0.757348,0.7574,0,9.08979,202.024)"
font-family="Helvetica" font-size="14" font-weight="400" font-style="normal" 
>
<text fill="#212121" fill-opacity="1" stroke="none" xml:space="preserve" x="0" y="0" font-family="Helvetica" font-size="14" font-weight="400" font-style="normal" 
 >Power (dB)</text>
</g>

<g fill="#212121" fill-opacity="1" stroke="#212121" stroke-opacity="1" stroke-width="1" stroke-linecap="square" stroke-linejoin="bevel" transform="matrix(0.7574,0,0,0.757348,264.134,9.08927)"
font-family="Helvetica" font-size="14" font-weight="700" font-style="normal" 
>
<text fill="#212121" fill-opacity="1" stroke="none" xml:space="preserve" x="0" y="0" font-family="Helvetica" font-size="14" font-weight="700" font-style="normal" 
 >Frequency Response @ Relevant Peaks</text>
</g>
</g>
</svg>
